{"glyphs":{"0":{"ha":779,"x_min":56,"x_max":724,"o":"m 56 372 q 160 700 56 564 q 428 836 264 836 q 642 724 560 836 q 724 444 724 611 q 619 117 724 253 q 351 -19 515 -19 q 138 93 221 -19 q 56 372 56 206 m 425 43 q 517 119 482 43 q 553 293 553 194 q 496 634 553 494 q 356 774 439 774 q 261 709 293 774 q 229 524 229 644 q 285 183 229 322 q 425 43 342 43 z "},"1":{"ha":531,"x_min":49,"x_max":482,"o":"m 185 92 l 185 583 l 50 533 l 49 536 l 351 843 l 351 92 l 482 0 l 61 0 l 185 92 z "},"2":{"ha":733,"x_min":49,"x_max":678,"o":"m 678 333 l 649 0 l 60 0 l 49 46 q 323 338 217 178 q 429 636 429 497 q 388 747 429 706 q 276 789 346 789 q 164 742 211 789 q 74 586 117 696 l 67 586 l 67 826 l 256 826 q 517 768 417 826 q 618 611 618 710 q 571 475 618 542 q 375 294 524 408 q 273 213 304 240 q 221 161 242 185 l 224 154 l 310 161 l 592 165 l 672 333 l 678 333 z "},"3":{"ha":697,"x_min":49,"x_max":635,"o":"m 635 258 q 574 136 635 192 q 394 40 513 81 q 221 -5 315 13 q 60 -22 126 -22 l 49 13 q 307 67 199 13 q 415 211 415 121 q 360 334 415 288 q 181 404 304 381 q 174 403 178 404 q 163 400 169 401 q 147 397 151 397 q 138 394 142 396 l 135 418 l 181 435 q 381 534 328 486 q 433 640 433 582 q 387 747 433 707 q 264 788 340 788 q 164 746 207 788 q 75 590 121 704 l 68 590 l 68 826 l 282 826 q 534 784 446 826 q 622 660 622 742 q 546 540 622 592 q 300 443 469 489 q 551 383 467 429 q 635 258 635 336 z "},"4":{"ha":789,"x_min":49,"x_max":733,"o":"m 386 381 l 556 628 l 556 268 l 733 268 l 733 206 l 556 206 l 556 92 l 686 0 l 265 0 l 388 92 l 388 207 l 49 207 l 383 826 l 586 826 l 192 269 l 386 269 l 386 381 z "},"5":{"ha":668,"x_min":56,"x_max":606,"o":"m 554 661 l 165 661 l 138 492 l 192 521 q 262 544 226 536 q 331 551 297 551 q 524 478 442 551 q 606 296 606 404 q 506 78 606 154 q 222 1 406 1 l 56 1 q 60 135 58 75 q 61 240 61 194 l 71 240 q 108 170 86 203 q 160 108 131 138 q 228 58 193 75 q 300 40 264 40 q 406 87 375 40 q 436 240 436 133 q 397 435 436 374 q 281 496 358 496 q 215 483 254 496 q 131 444 176 469 l 125 444 l 118 407 l 69 407 l 128 814 l 129 828 l 524 828 l 606 899 l 590 828 l 554 661 z "},"6":{"ha":706,"x_min":56,"x_max":643,"o":"m 332 -17 q 134 56 213 -17 q 56 240 56 128 q 197 582 56 428 q 599 838 339 736 l 607 811 q 366 653 453 742 q 246 443 279 564 q 328 486 289 471 q 397 501 367 501 q 574 434 506 501 q 643 256 643 367 q 553 65 643 147 q 332 -17 464 -17 m 479 226 q 434 383 479 321 q 329 444 389 444 q 280 437 299 444 q 238 408 261 429 q 227 342 231 378 q 224 267 224 307 q 258 88 224 150 q 360 25 293 25 q 447 86 414 25 q 479 226 479 147 z "},"7":{"ha":671,"x_min":49,"x_max":643,"o":"m 476 660 l 122 660 l 53 558 l 49 558 l 49 826 l 643 826 l 165 -56 l 118 -33 l 476 660 z "},"8":{"ha":688,"x_min":50,"x_max":635,"o":"m 124 501 q 93 561 103 531 q 83 629 83 592 q 163 788 83 729 q 364 847 243 847 q 518 801 454 847 q 582 681 582 756 q 552 583 582 626 q 451 496 522 539 q 600 366 565 421 q 635 240 635 311 q 538 51 635 122 q 313 -21 442 -21 q 124 36 199 -21 q 50 182 50 93 q 63 256 50 222 q 103 319 76 290 q 139 353 118 338 q 221 408 160 369 q 147 474 161 460 q 124 501 133 488 m 207 676 q 226 621 207 646 q 290 571 246 596 q 359 538 314 558 q 419 511 404 518 q 487 578 465 540 q 508 664 508 615 q 467 774 508 736 q 351 813 426 813 q 248 776 289 813 q 207 676 207 739 m 463 281 q 424 315 447 299 q 368 346 401 331 q 310 370 347 356 q 260 390 272 385 q 161 301 199 356 q 124 188 124 247 q 174 62 124 110 q 314 14 225 14 q 450 56 400 14 q 500 174 500 99 q 491 233 500 206 q 463 281 482 260 z "},"9":{"ha":699,"x_min":56,"x_max":643,"o":"m 643 597 q 499 247 643 407 q 100 -14 354 86 q 95 1 97 -6 q 92 14 93 8 q 333 171 246 82 q 453 382 419 260 q 376 339 415 354 q 301 324 336 324 q 124 391 193 324 q 56 569 56 458 q 145 760 56 678 q 367 842 235 842 q 566 774 489 842 q 643 597 643 707 m 219 597 q 265 442 219 504 q 369 381 310 381 q 420 388 401 381 q 461 415 439 396 q 472 487 468 451 q 475 557 475 522 q 440 738 475 675 q 339 800 406 800 q 252 738 285 800 q 219 597 219 676 z "},"Ð":{"ha":983,"x_min":35,"x_max":935,"o":"m 138 525 l 138 804 l 35 951 l 404 951 q 798 841 661 951 q 935 531 935 731 q 788 141 935 282 q 381 0 640 0 l 35 0 l 138 147 l 138 456 l 35 456 l 35 525 l 138 525 m 521 456 l 318 456 l 318 53 l 406 53 q 656 160 571 53 q 740 478 740 267 q 658 799 740 690 q 415 907 576 907 l 318 907 l 318 525 l 521 525 l 521 456 z "},"ð":{"ha":750,"x_min":42,"x_max":708,"o":"m 426 917 l 589 1010 l 592 929 l 469 869 q 649 608 589 732 q 708 371 708 483 q 606 95 708 207 q 336 -17 504 -17 q 122 76 203 -17 q 42 310 42 168 q 144 585 42 474 q 414 697 246 697 l 417 697 q 389 742 404 718 q 344 808 374 767 l 182 729 l 182 776 l 311 851 q 253 922 283 886 q 188 996 222 958 l 349 996 q 396 949 379 965 q 426 917 413 932 m 413 36 q 503 94 471 36 q 535 244 535 151 q 480 531 535 418 q 339 644 425 644 q 248 597 278 644 q 218 436 218 550 q 272 149 218 263 q 413 36 326 36 z "},"Ł":{"ha":867,"x_min":14,"x_max":818,"o":"m 804 299 l 818 299 l 803 0 l 68 0 l 151 147 l 151 401 l 14 361 l 14 447 l 151 488 l 151 807 l 68 951 l 438 951 l 332 806 l 332 540 l 514 594 l 514 506 l 332 453 l 332 50 l 611 50 l 804 299 z "},"ł":{"ha":432,"x_min":-7,"x_max":439,"o":"m 439 557 l 289 494 l 289 119 l 392 0 l 19 0 l 122 119 l 122 426 l -7 372 l -7 458 l 122 513 l 122 611 l 28 718 l 122 747 l 122 800 l 28 907 l 289 986 l 289 583 l 439 646 l 439 557 z "},"Š":{"ha":740,"x_min":49,"x_max":685,"o":"m 243 1207 l 264 1207 l 388 1110 l 511 1207 l 532 1207 l 444 1028 l 329 1028 l 243 1207 m 342 -11 q 192 3 271 -11 q 65 39 114 17 l 49 372 l 65 372 q 192 135 101 229 q 388 42 282 42 q 490 81 449 42 q 532 181 532 121 q 514 260 532 225 q 458 325 496 296 q 408 360 438 343 q 310 407 378 376 q 194 465 231 443 q 132 511 158 488 q 72 592 92 547 q 53 694 53 638 q 134 880 53 808 q 354 951 215 951 l 553 951 l 619 972 l 619 672 l 603 674 q 494 844 569 782 q 321 907 418 907 q 225 873 261 907 q 189 781 189 839 q 231 677 189 722 q 415 565 274 632 q 531 506 494 528 q 596 463 568 485 q 663 381 640 425 q 685 283 685 336 q 592 67 685 144 q 342 -11 500 -11 z "},"š":{"ha":571,"x_min":35,"x_max":536,"o":"m 161 946 l 181 946 l 299 844 l 414 946 l 436 946 l 356 767 l 240 767 l 161 946 m 264 -14 q 142 -6 203 -14 q 47 18 82 3 l 35 263 l 46 263 q 149 104 74 169 q 306 39 224 39 q 382 63 354 39 q 410 129 410 86 q 382 194 410 167 q 261 254 354 221 q 161 294 193 278 q 107 331 129 311 q 58 399 74 360 q 42 488 42 438 q 107 625 42 569 q 274 681 172 681 l 426 681 l 478 710 l 478 479 l 469 481 q 369 592 433 547 q 247 636 304 636 q 180 611 204 636 q 156 544 156 586 q 183 488 156 511 q 306 433 211 464 q 406 394 374 410 q 463 361 439 378 q 518 294 500 332 q 536 210 536 257 q 456 48 536 110 q 264 -14 375 -14 z "},"Ý":{"ha":957,"x_min":14,"x_max":943,"o":"m 686 1207 l 507 1028 l 486 1028 l 504 1207 l 686 1207 m 568 442 l 568 140 l 685 0 l 271 0 l 388 140 l 388 390 l 140 804 l 14 951 l 460 951 l 342 804 l 340 804 l 504 542 l 526 496 l 708 807 l 590 951 l 943 951 l 800 821 l 568 442 z "},"ý":{"ha":743,"x_min":0,"x_max":743,"o":"m 413 946 l 588 946 l 408 767 l 388 767 l 413 946 m 343 14 l 92 568 l 0 681 l 368 681 l 267 592 l 413 233 l 429 186 l 597 592 l 496 681 l 743 681 l 661 594 l 339 -179 l 439 -299 l 139 -299 l 261 -174 l 343 14 z "},"Þ":{"ha":840,"x_min":56,"x_max":775,"o":"m 442 951 l 339 804 l 339 775 l 389 775 q 669 709 563 775 q 775 521 775 643 q 687 331 775 410 q 467 236 599 253 q 403 229 438 232 q 339 226 368 226 l 339 147 l 464 0 l 56 0 l 158 147 l 158 804 l 56 951 l 442 951 m 339 274 q 517 332 456 274 q 578 504 578 390 q 517 675 578 617 q 339 733 456 733 l 339 274 z "},"þ":{"ha":839,"x_min":28,"x_max":788,"o":"m 131 800 l 36 907 l 297 986 l 297 590 q 395 670 344 646 q 510 694 446 694 q 710 601 633 694 q 788 368 788 508 q 762 223 788 294 q 689 99 736 151 q 574 15 640 43 q 426 -12 507 -12 q 368 -8 403 -12 q 297 4 333 -4 l 297 -179 l 426 -299 l 28 -299 l 131 -179 l 131 800 m 624 242 q 565 495 624 399 q 413 592 506 592 q 357 582 385 592 q 297 553 329 572 l 297 143 q 384 74 336 99 q 481 49 432 49 q 589 94 554 49 q 624 242 624 140 z "},"\r":{"ha":0,"x_min":0,"x_max":0,"o":""},"Ž":{"ha":928,"x_min":42,"x_max":865,"o":"m 331 1207 l 351 1207 l 475 1110 l 599 1207 l 619 1207 l 532 1028 l 417 1028 l 331 1207 m 854 951 l 864 932 l 267 50 l 661 50 l 854 299 l 865 299 l 850 0 l 51 0 l 42 17 l 632 901 l 300 901 l 114 650 l 103 650 l 111 965 l 258 951 l 854 951 z "},"ž":{"ha":704,"x_min":28,"x_max":676,"o":"m 239 946 l 258 946 l 376 844 l 492 946 l 514 946 l 433 767 l 318 767 l 239 946 m 204 681 l 671 681 l 253 50 l 504 50 l 676 300 l 651 21 l 651 0 l 28 0 l 446 631 l 231 631 l 85 411 l 85 706 l 204 681 z "},"½":{"ha":1172,"x_min":86,"x_max":1086,"o":"m 156 -46 l 782 999 l 849 999 l 221 -46 l 156 -46 m 182 471 l 182 788 l 88 756 l 86 757 l 299 954 l 299 471 l 392 413 l 96 413 l 182 471 m 1086 213 l 1065 0 l 651 0 l 643 29 q 837 215 763 114 q 911 406 911 317 q 883 472 911 447 q 804 497 854 497 q 723 468 757 497 q 661 372 689 439 l 657 372 l 657 525 l 789 525 q 973 488 901 525 q 1044 389 1044 451 q 1019 310 1044 349 q 935 226 993 272 q 863 174 922 217 q 776 103 803 131 l 779 99 l 826 103 l 1025 106 l 1082 213 l 1086 213 z "},"¼":{"ha":1035,"x_min":86,"x_max":1017,"o":"m 213 -46 l 839 999 l 906 999 l 278 -46 l 213 -46 m 182 471 l 182 788 l 88 756 l 86 757 l 299 954 l 299 471 l 392 413 l 96 413 l 182 471 m 772 243 l 890 400 l 890 171 l 1017 171 l 1017 131 l 890 131 l 890 58 l 983 0 l 688 0 l 774 58 l 774 132 l 535 132 l 771 526 l 913 526 l 635 172 l 772 172 l 772 243 z "},"¹":{"ha":457,"x_min":86,"x_max":392,"o":"m 182 650 l 182 967 l 88 935 l 86 936 l 299 1133 l 299 650 l 392 592 l 96 592 l 182 650 z "},"¾":{"ha":1121,"x_min":60,"x_max":1065,"o":"m 261 -46 l 888 999 l 954 999 l 326 -46 l 261 -46 m 472 590 q 428 512 472 547 q 299 450 383 476 q 177 422 242 432 q 67 411 113 411 l 60 438 q 242 470 168 438 q 317 560 317 503 q 278 638 317 608 q 153 682 239 667 q 138 680 149 682 q 122 676 128 678 l 119 692 l 153 701 q 294 766 258 736 q 331 832 331 796 q 298 899 331 874 q 211 924 265 924 q 141 899 171 924 q 78 801 111 874 l 72 801 l 72 951 l 225 951 q 402 924 340 951 q 464 844 464 897 q 413 770 464 803 q 244 707 361 738 q 414 669 356 699 q 472 590 472 640 m 821 243 l 939 400 l 939 171 l 1065 171 l 1065 131 l 939 131 l 939 58 l 1032 0 l 736 0 l 822 58 l 822 132 l 583 132 l 819 526 l 961 526 l 683 172 l 821 172 l 821 243 z "},"³":{"ha":493,"x_min":60,"x_max":472,"o":"m 472 757 q 428 678 472 714 q 299 617 383 643 q 177 588 242 599 q 67 578 113 578 l 60 604 q 242 637 168 604 q 317 726 317 669 q 278 804 317 775 q 153 849 239 833 q 138 847 149 849 q 122 843 128 844 l 119 858 l 153 868 q 294 933 258 903 q 331 999 331 963 q 298 1065 331 1040 q 211 1090 265 1090 q 141 1065 171 1090 q 78 968 111 1040 l 72 968 l 72 1118 l 225 1118 q 402 1091 340 1118 q 464 1011 464 1064 q 413 937 464 969 q 244 874 361 904 q 414 836 356 865 q 472 757 472 807 z "},"²":{"ha":493,"x_min":35,"x_max":478,"o":"m 478 813 l 457 600 l 43 600 l 35 629 q 228 815 154 714 q 303 1006 303 917 q 274 1072 303 1047 q 196 1097 246 1097 q 115 1068 149 1097 q 53 972 81 1039 l 49 972 l 49 1125 l 181 1125 q 365 1088 293 1125 q 436 989 436 1051 q 410 910 436 949 q 326 826 385 872 q 254 774 314 817 q 168 703 194 731 l 171 699 l 218 703 l 417 706 l 474 813 l 478 813 z "},"¦":{"ha":399,"x_min":138,"x_max":261,"o":"m 261 514 l 138 514 l 138 972 l 261 972 l 261 514 m 138 250 l 261 250 l 261 -208 l 138 -208 l 138 250 z "},"−":{"ha":619,"x_min":46,"x_max":574,"o":"m 46 432 l 574 432 l 574 335 l 46 335 l 46 432 z "},"×":{"ha":546,"x_min":31,"x_max":515,"o":"m 432 600 l 503 521 l 343 353 l 515 172 l 444 101 l 274 281 l 101 100 l 31 179 l 200 357 l 43 522 l 114 593 l 269 429 l 432 600 z "}," ":{"ha":299,"x_min":0,"x_max":0,"o":""},"!":{"ha":301,"x_min":26,"x_max":264,"o":"m 46 913 l 139 976 l 231 913 l 164 306 l 114 306 l 46 913 m 264 92 l 146 -36 l 26 92 l 146 221 l 264 92 z "},"\"":{"ha":342,"x_min":33,"x_max":299,"o":"m 33 965 l 136 965 l 111 660 l 56 660 l 33 965 m 196 965 l 299 965 l 274 660 l 218 660 l 196 965 z "},"#":{"ha":811,"x_min":42,"x_max":769,"o":"m 314 844 l 417 844 l 353 596 l 517 596 l 582 844 l 685 844 l 619 596 l 769 596 l 769 526 l 601 526 l 550 315 l 731 315 l 731 244 l 532 244 l 467 0 l 364 0 l 429 244 l 265 244 l 199 0 l 96 0 l 163 244 l 42 244 l 42 315 l 181 315 l 232 526 l 81 526 l 81 596 l 250 596 l 314 844 m 499 526 l 335 526 l 283 315 l 447 315 l 499 526 z "},"$":{"ha":646,"x_min":42,"x_max":604,"o":"m 269 -10 q 151 5 210 -7 q 57 33 93 17 l 42 324 l 56 324 q 140 148 82 222 q 269 47 197 74 l 269 338 q 92 453 138 396 q 46 594 46 511 q 106 754 46 692 q 271 826 165 817 l 271 901 l 357 901 l 354 828 l 481 828 l 539 846 l 539 585 l 529 586 q 458 707 504 658 q 353 776 413 756 l 343 514 q 463 460 432 476 q 517 426 494 443 q 583 352 561 393 q 604 260 604 311 q 533 66 604 135 q 325 -10 461 -3 l 322 -81 l 269 -81 l 269 -10 m 271 789 q 193 757 222 786 q 164 679 164 728 q 190 607 164 639 q 271 546 215 575 l 271 789 m 472 144 q 442 233 472 194 q 336 307 411 271 l 326 36 l 336 36 q 433 66 394 36 q 472 144 472 96 z "},"%":{"ha":1085,"x_min":46,"x_max":1039,"o":"m 199 -46 l 825 999 l 892 999 l 264 -46 l 199 -46 m 46 658 q 117 869 46 781 q 300 957 188 957 q 447 885 390 957 q 503 706 503 813 q 431 495 503 583 q 247 407 360 407 q 102 479 158 407 q 46 658 46 551 m 300 447 q 363 496 339 447 q 386 608 386 544 q 347 826 386 736 q 251 917 308 917 q 187 876 208 917 q 165 756 165 835 q 204 537 165 626 q 300 447 243 447 m 582 238 q 653 448 582 360 q 836 536 724 536 q 983 464 926 536 q 1039 285 1039 392 q 967 74 1039 163 q 783 -14 896 -14 q 638 58 694 -14 q 582 238 582 131 m 836 26 q 899 75 875 26 q 922 188 922 124 q 883 406 922 315 q 788 496 844 496 q 723 455 744 496 q 701 335 701 414 q 740 116 701 206 q 836 26 779 26 z "},"&":{"ha":1099,"x_min":61,"x_max":1067,"o":"m 597 486 l 744 286 l 858 511 l 725 606 l 1067 606 l 903 508 l 767 254 l 878 104 l 1007 0 l 740 0 l 651 128 q 489 14 565 49 q 329 -21 413 -21 q 131 32 200 -21 q 61 182 61 85 q 157 358 61 279 q 404 469 253 436 l 404 532 l 401 532 q 222 588 289 532 q 156 729 156 643 q 240 897 156 829 q 465 965 325 965 q 647 912 579 965 q 714 774 714 858 q 654 628 714 693 q 494 542 594 563 l 501 486 l 597 486 m 460 567 q 526 606 501 567 q 550 699 550 646 q 508 862 550 794 q 406 929 465 929 q 340 901 361 929 q 318 806 318 872 q 360 637 318 707 q 460 567 401 567 m 253 244 q 303 114 253 157 q 454 71 353 71 q 551 95 501 71 q 631 158 600 119 l 431 447 q 303 370 354 428 q 253 244 253 313 z "},"'":{"ha":186,"x_min":36,"x_max":139,"o":"m 36 965 l 139 965 l 114 660 l 58 660 l 36 965 z "},"(":{"ha":404,"x_min":43,"x_max":390,"o":"m 129 736 q 177 808 150 772 q 239 881 204 843 q 316 958 268 913 q 369 1008 364 1003 l 390 988 q 228 735 278 872 q 179 383 179 599 q 228 31 179 168 q 390 -221 278 -107 l 369 -242 q 212 -90 261 -147 q 128 29 163 -32 q 64 195 85 107 q 43 383 43 283 q 48 478 43 432 q 64 567 53 524 q 90 653 74 611 q 129 736 107 696 z "},")":{"ha":403,"x_min":14,"x_max":360,"o":"m 14 -221 q 176 31 126 -107 q 225 383 225 168 q 176 735 225 599 q 14 988 126 872 l 35 1008 q 89 957 42 1001 q 164 882 136 913 q 226 808 199 844 q 274 735 253 772 q 313 653 296 696 q 340 565 329 611 q 355 477 350 522 q 360 383 360 432 q 339 195 360 283 q 275 31 318 107 q 193 -88 242 -31 q 35 -242 144 -146 l 14 -221 z "},"*":{"ha":465,"x_min":7,"x_max":460,"o":"m 233 967 l 285 911 l 247 746 l 222 746 l 183 908 l 233 967 m 29 765 l 7 838 l 82 851 l 204 738 l 192 715 l 29 765 m 460 838 l 436 765 l 275 715 l 263 738 l 383 851 l 460 838 m 7 571 l 29 643 l 192 693 l 204 671 l 82 556 l 7 571 m 436 643 l 460 571 l 383 556 l 263 671 l 275 693 l 436 643 m 236 444 l 185 500 l 222 665 l 247 665 l 286 503 l 236 444 z "},"+":{"ha":729,"x_min":56,"x_max":650,"o":"m 292 671 l 401 713 l 401 431 l 650 431 l 650 331 l 401 331 l 401 76 l 292 35 l 292 331 l 56 331 l 56 431 l 292 431 l 292 671 z "},",":{"ha":315,"x_min":42,"x_max":269,"o":"m 157 221 q 236 154 203 193 q 269 86 269 115 q 222 -39 269 24 q 65 -171 174 -101 l 46 -157 q 113 -84 89 -121 q 136 -12 136 -47 q 131 15 136 3 q 96 60 126 28 l 42 103 l 157 221 z "},"-":{"ha":408,"x_min":42,"x_max":382,"o":"m 42 447 l 382 447 l 382 336 l 42 336 l 42 447 z "},".":{"ha":251,"x_min":7,"x_max":244,"o":"m 244 92 l 126 -36 l 7 92 l 126 221 l 244 92 z "},"/":{"ha":618,"x_min":39,"x_max":579,"o":"m 472 965 l 579 965 l 146 0 l 39 0 l 472 965 z "},":":{"ha":251,"x_min":7,"x_max":244,"o":"m 244 465 l 126 338 l 7 465 l 126 594 l 244 465 m 244 92 l 126 -36 l 7 92 l 126 221 l 244 92 z "},";":{"ha":338,"x_min":57,"x_max":294,"o":"m 294 488 l 176 360 l 57 488 l 176 617 l 294 488 m 175 221 q 254 154 221 193 q 288 86 288 115 q 240 -39 288 24 q 83 -171 192 -101 l 64 -157 q 131 -84 107 -121 q 154 -12 154 -47 q 149 15 154 3 q 114 60 144 28 l 60 103 l 175 221 z "},"<":{"ha":776,"x_min":64,"x_max":714,"o":"m 714 56 l 64 294 l 64 406 l 714 644 l 714 544 l 293 382 l 714 156 l 714 56 z "},"=":{"ha":676,"x_min":63,"x_max":592,"o":"m 63 463 l 63 563 l 592 563 l 592 463 l 63 463 m 63 179 l 63 279 l 592 279 l 592 179 l 63 179 z "},">":{"ha":776,"x_min":64,"x_max":714,"o":"m 64 644 l 714 406 l 714 294 l 64 56 l 64 156 l 485 318 l 64 544 l 64 644 z "},"?":{"ha":700,"x_min":92,"x_max":639,"o":"m 136 729 l 125 728 l 92 965 l 211 965 q 538 913 438 965 q 639 750 639 860 q 608 647 639 694 q 511 560 576 600 q 385 495 464 529 q 294 456 306 461 l 278 306 l 244 306 l 219 475 q 369 576 311 507 q 428 719 428 644 q 400 865 428 815 q 319 914 372 914 q 209 870 253 914 q 136 729 165 826 m 382 92 l 264 -36 l 144 92 l 264 221 l 382 92 z "},"@":{"ha":1140,"x_min":63,"x_max":1078,"o":"m 560 -197 q 887 -89 750 -197 q 1024 167 1024 19 q 1012 244 1024 207 q 976 314 1000 282 l 1058 371 q 1073 282 1068 322 q 1078 199 1078 242 q 1035 21 1078 104 q 911 -125 992 -62 q 747 -212 839 -182 q 560 -243 656 -243 q 201 -113 340 -243 q 63 226 63 17 q 185 565 63 439 q 526 690 307 690 l 904 690 l 865 578 l 865 111 l 906 0 l 672 0 l 672 110 q 516 8 569 31 q 414 -15 463 -15 q 301 28 346 -14 q 256 135 256 71 q 293 248 256 200 q 415 339 331 296 q 504 378 453 357 q 672 439 556 399 q 664 535 672 504 q 638 588 656 567 q 581 624 617 613 q 492 636 544 636 q 217 524 317 636 q 117 231 117 413 q 238 -81 117 35 q 560 -197 360 -197 m 431 183 q 464 115 431 140 q 553 90 497 90 q 609 102 583 90 q 672 147 635 114 l 672 403 q 492 295 553 351 q 431 183 431 239 z "},"A":{"ha":1010,"x_min":7,"x_max":1003,"o":"m 899 93 l 1003 0 l 575 0 l 703 96 l 618 297 l 257 297 l 182 108 l 314 0 l 7 0 l 106 110 l 458 965 l 524 965 l 899 93 m 282 360 l 593 360 l 435 740 l 282 360 z "},"B":{"ha":875,"x_min":56,"x_max":826,"o":"m 139 147 l 139 807 l 56 951 l 374 951 q 672 901 579 951 q 765 742 765 850 q 713 615 765 669 q 546 517 661 560 q 756 419 686 485 q 826 254 826 354 q 699 67 826 133 q 361 0 571 0 l 56 0 l 139 147 m 586 714 q 531 858 586 810 q 367 907 476 907 l 319 907 l 319 525 q 515 576 444 525 q 586 714 586 626 m 622 258 q 550 434 622 378 q 319 490 478 490 l 319 54 l 363 54 q 550 110 478 54 q 622 258 622 165 z "},"C":{"ha":904,"x_min":49,"x_max":856,"o":"m 568 951 l 785 951 l 785 669 l 767 669 q 651 835 725 775 q 482 894 576 894 q 310 806 371 894 q 250 564 250 718 q 327 259 250 372 q 539 146 404 146 q 710 186 636 146 q 835 307 783 226 l 856 293 q 690 65 794 147 q 454 -17 585 -17 q 159 109 269 -17 q 49 443 49 235 q 88 640 49 544 q 200 808 128 736 q 365 915 271 878 q 568 951 458 951 z "},"D":{"ha":1021,"x_min":56,"x_max":972,"o":"m 158 147 l 158 804 l 56 951 l 425 951 q 828 833 685 951 q 972 517 972 714 q 817 140 972 279 q 401 0 663 0 l 56 0 l 158 147 m 436 907 l 339 907 l 339 53 l 426 53 q 689 167 597 53 q 781 478 781 281 q 691 796 781 685 q 436 907 601 907 z "},"E":{"ha":822,"x_min":56,"x_max":767,"o":"m 568 50 l 751 304 l 767 301 l 751 0 l 56 0 l 139 147 l 139 807 l 56 951 l 725 951 l 725 660 l 708 660 l 556 901 l 319 901 l 319 517 l 699 517 l 699 454 l 319 454 l 319 50 l 568 50 z "},"F":{"ha":781,"x_min":56,"x_max":725,"o":"m 468 0 l 56 0 l 56 8 l 139 147 l 139 807 l 56 951 l 725 951 l 725 668 l 711 668 l 556 901 l 319 901 l 319 513 l 688 513 l 688 449 l 319 449 l 319 147 l 468 0 z "},"G":{"ha":954,"x_min":49,"x_max":921,"o":"m 524 414 l 524 429 l 921 429 l 921 415 l 847 364 l 847 -8 l 826 -8 l 694 65 q 574 3 635 24 q 454 -18 514 -18 q 159 108 269 -18 q 49 442 49 233 q 88 639 49 543 q 200 807 128 735 q 365 913 271 876 q 568 950 458 950 l 785 950 l 785 668 l 767 668 q 625 846 692 799 q 472 893 558 893 q 311 809 367 893 q 256 563 256 725 q 331 207 256 331 q 554 83 407 83 q 612 91 579 83 q 669 110 644 99 l 669 340 l 524 414 z "},"H":{"ha":1083,"x_min":42,"x_max":1028,"o":"m 1028 951 l 924 804 l 924 147 l 1026 0 l 640 0 l 743 147 l 743 463 l 325 463 l 325 147 l 428 0 l 42 0 l 144 147 l 144 806 l 43 951 l 429 951 l 325 804 l 325 525 l 743 525 l 743 806 l 642 951 l 1028 951 z "},"I":{"ha":497,"x_min":56,"x_max":442,"o":"m 339 804 l 339 147 l 442 0 l 56 0 l 158 147 l 158 804 l 56 951 l 442 951 l 339 804 z "},"J":{"ha":469,"x_min":42,"x_max":428,"o":"m 144 804 l 42 951 l 428 951 l 325 804 l 325 6 q 271 -122 325 -56 q 124 -244 217 -187 l 114 -239 q 136 -173 128 -211 q 144 -101 144 -135 l 144 804 z "},"K":{"ha":1068,"x_min":56,"x_max":1051,"o":"m 888 106 l 1051 0 l 594 0 l 658 88 l 397 450 l 339 392 l 339 147 l 442 0 l 56 0 l 158 147 l 158 806 l 56 953 l 442 953 l 339 806 l 339 479 l 544 688 l 697 849 l 653 953 l 975 953 l 774 828 l 531 585 l 888 106 z "},"L":{"ha":847,"x_min":56,"x_max":806,"o":"m 608 63 l 792 300 l 806 300 l 790 0 l 56 0 l 139 147 l 139 807 l 56 951 l 425 951 l 319 806 l 319 63 l 608 63 z "},"M":{"ha":1272,"x_min":28,"x_max":1224,"o":"m 569 -17 l 213 706 l 213 133 l 325 0 l 40 0 l 147 133 l 147 807 l 28 951 l 303 951 l 633 257 l 932 951 l 1222 951 l 1119 838 l 1119 146 l 1224 0 l 822 0 l 939 144 l 939 815 l 579 -17 l 569 -17 z "},"N":{"ha":1050,"x_min":33,"x_max":1001,"o":"m 1001 951 l 899 822 l 899 81 l 958 0 l 743 0 l 233 679 l 233 119 l 351 0 l 65 0 l 168 129 l 168 775 l 33 951 l 263 951 l 832 158 l 832 832 l 713 951 l 1001 951 z "},"O":{"ha":1025,"x_min":49,"x_max":976,"o":"m 49 435 q 190 819 49 668 q 565 969 332 969 q 860 837 743 969 q 976 518 976 704 q 835 134 976 285 q 460 -17 693 -17 q 165 116 282 -17 q 49 435 49 249 m 558 42 q 720 135 658 42 q 782 350 782 228 q 693 747 782 585 q 467 910 604 910 q 303 826 360 910 q 246 603 246 743 q 334 204 246 367 q 558 42 422 42 z "},"P":{"ha":817,"x_min":56,"x_max":775,"o":"m 339 147 l 464 0 l 56 0 l 158 147 l 158 804 l 56 951 l 389 951 q 677 887 579 951 q 775 697 775 822 q 687 508 775 586 q 467 413 599 429 q 403 406 438 408 q 339 403 368 403 l 339 147 m 339 450 q 517 508 456 450 q 578 681 578 567 q 517 851 578 793 q 339 910 456 910 l 339 450 z "},"Q":{"ha":1025,"x_min":49,"x_max":976,"o":"m 976 518 q 920 262 976 378 q 761 75 864 146 l 814 -165 l 808 -174 q 669 -109 742 -150 q 515 -7 597 -68 q 481 -9 493 -8 q 460 -10 469 -10 q 165 120 282 -10 q 49 435 49 250 q 190 815 49 667 q 565 963 332 963 q 860 833 743 963 q 976 518 976 703 m 558 49 q 721 139 660 49 q 782 350 782 229 q 693 743 782 583 q 467 903 604 903 q 303 822 360 903 q 246 603 246 742 q 333 208 246 368 q 558 49 421 49 z "},"R":{"ha":967,"x_min":56,"x_max":953,"o":"m 590 471 l 806 136 l 953 0 l 672 0 q 485 315 529 244 q 406 433 440 385 l 339 428 l 339 147 l 442 0 l 56 0 l 158 147 l 158 804 l 56 951 l 407 951 q 706 889 606 951 q 806 706 806 826 q 749 569 806 631 q 590 471 692 508 m 339 474 q 528 535 454 476 q 601 689 601 593 q 535 854 601 799 q 339 910 469 910 l 339 474 z "},"S":{"ha":740,"x_min":49,"x_max":685,"o":"m 342 -11 q 192 3 271 -11 q 65 39 114 17 l 49 372 l 65 372 q 192 135 101 229 q 388 42 282 42 q 490 79 449 42 q 532 181 532 117 q 514 260 532 225 q 458 325 496 296 q 408 360 438 343 q 310 407 378 376 q 194 465 231 443 q 132 511 158 488 q 72 592 92 547 q 53 694 53 638 q 134 880 53 808 q 354 951 215 951 l 553 951 l 619 972 l 619 672 l 603 674 q 494 844 569 782 q 321 907 418 907 q 225 873 261 907 q 189 781 189 839 q 231 677 189 722 q 415 565 274 632 q 531 506 494 528 q 596 463 568 485 q 663 381 640 425 q 685 283 685 336 q 592 67 685 144 q 342 -11 500 -11 z "},"T":{"ha":917,"x_min":26,"x_max":864,"o":"m 215 901 l 38 646 l 26 647 l 26 951 l 864 951 l 864 647 l 853 646 l 674 903 l 535 903 l 535 147 l 638 0 l 251 0 l 354 147 l 354 901 l 215 901 z "},"U":{"ha":1085,"x_min":56,"x_max":1036,"o":"m 724 951 l 1036 951 l 910 826 l 908 822 l 908 385 q 897 250 908 303 q 851 133 886 197 q 733 20 813 61 q 551 -21 654 -21 q 256 63 354 -21 q 157 307 157 146 l 157 806 l 56 951 l 442 951 l 339 804 l 339 328 q 397 113 339 181 q 603 46 454 46 q 782 140 722 46 q 842 418 842 233 l 842 826 l 724 951 z "},"V":{"ha":946,"x_min":4,"x_max":939,"o":"m 272 867 l 514 257 l 532 192 l 767 832 l 649 951 l 939 951 l 842 828 l 510 -28 l 443 -28 l 76 869 l 4 951 l 383 951 l 272 867 z "},"W":{"ha":1396,"x_min":18,"x_max":1394,"o":"m 783 867 l 999 257 l 1015 196 l 1224 831 l 1104 951 l 1394 951 l 1300 832 l 1003 -17 l 918 -17 l 717 524 l 519 -17 l 435 -17 l 90 869 l 18 951 l 397 951 l 286 867 l 514 257 l 528 206 l 686 606 l 586 872 l 517 951 l 896 951 l 783 867 z "},"X":{"ha":1003,"x_min":6,"x_max":1003,"o":"m 1003 0 l 531 0 l 654 138 l 454 408 l 254 131 l 365 0 l 6 0 l 151 144 l 406 474 l 163 804 l 19 951 l 458 951 l 347 817 l 533 574 l 706 811 l 604 951 l 965 951 l 801 808 l 581 515 l 854 147 l 1003 0 z "},"Y":{"ha":957,"x_min":14,"x_max":943,"o":"m 800 821 l 568 442 l 568 147 l 671 0 l 285 0 l 388 147 l 388 390 l 140 804 l 14 951 l 460 951 l 342 804 l 340 804 l 504 542 l 526 496 l 708 807 l 590 951 l 943 951 l 800 821 z "},"Z":{"ha":928,"x_min":42,"x_max":865,"o":"m 668 61 l 860 300 l 865 300 l 850 -1 l 51 -1 l 42 15 l 622 886 l 292 886 l 108 646 l 103 646 l 111 964 l 258 950 l 854 950 l 864 931 l 275 61 l 668 61 z "},"[":{"ha":297,"x_min":7,"x_max":272,"o":"m 272 -222 l 7 -222 l 7 988 l 272 988 l 272 910 l 101 910 l 101 -144 l 272 -144 l 272 -222 z "},"\\":{"ha":600,"x_min":39,"x_max":579,"o":"m 472 0 l 39 965 l 146 965 l 579 0 l 472 0 z "},"]":{"ha":297,"x_min":11,"x_max":276,"o":"m 276 -222 l 11 -222 l 11 -144 l 182 -144 l 182 910 l 11 910 l 11 988 l 276 988 l 276 -222 z "},"^":{"ha":647,"x_min":7,"x_max":640,"o":"m 267 965 l 381 965 l 379 964 l 640 392 l 540 392 l 282 744 l 107 392 l 7 392 l 268 964 l 267 965 z "},"_":{"ha":772,"x_min":0,"x_max":772,"o":"m 0 0 l 772 0 l 772 -83 l 0 -83 l 0 0 z "},"`":{"ha":256,"x_min":28,"x_max":228,"o":"m 28 946 l 203 946 l 228 767 l 207 767 l 28 946 z "},"a":{"ha":742,"x_min":35,"x_max":714,"o":"m 611 90 l 714 0 l 443 0 l 443 117 q 317 20 379 54 q 201 -14 254 -14 q 78 27 122 -14 q 35 146 35 68 q 117 294 35 229 q 443 444 199 358 q 440 529 443 501 q 431 576 438 557 q 394 626 419 610 q 326 642 368 642 q 204 603 260 642 q 78 458 149 564 l 68 458 l 68 681 l 640 681 l 610 561 l 610 90 l 611 90 m 218 192 q 246 121 218 146 q 322 96 274 96 q 385 111 354 96 q 443 154 417 126 l 443 406 q 357 367 394 386 q 294 331 319 349 q 236 273 254 303 q 218 192 218 243 z "},"b":{"ha":831,"x_min":28,"x_max":779,"o":"m 122 800 l 28 907 l 289 986 l 289 590 q 387 670 336 646 q 501 694 438 694 q 702 601 625 694 q 779 368 779 508 q 753 223 779 294 q 681 99 728 151 q 565 15 632 43 q 418 -12 499 -12 q 328 -3 385 -12 q 222 19 271 6 l 122 -15 l 122 800 m 615 242 q 558 497 615 401 q 404 592 500 592 q 349 582 376 592 q 289 553 321 572 l 289 143 q 376 74 328 99 q 472 49 424 49 q 581 94 546 49 q 615 242 615 140 z "},"c":{"ha":650,"x_min":42,"x_max":608,"o":"m 408 681 l 575 681 l 575 458 l 565 458 q 468 591 521 550 q 347 632 415 632 q 240 579 278 632 q 201 439 201 526 q 256 223 201 297 q 408 149 310 149 q 523 188 469 149 q 593 274 576 226 l 608 268 q 497 64 576 144 q 313 -17 417 -17 q 116 76 190 -17 q 42 313 42 169 q 141 576 42 471 q 408 681 240 681 z "},"d":{"ha":829,"x_min":49,"x_max":801,"o":"m 699 97 l 801 0 l 532 -12 l 532 124 q 439 20 492 54 q 319 -14 386 -14 q 122 78 196 -14 q 49 313 49 169 q 149 576 49 472 q 415 681 249 681 l 532 681 l 532 800 l 438 907 l 699 986 l 699 97 m 214 439 q 270 217 214 294 q 428 139 326 139 q 484 147 460 139 q 532 174 508 156 l 532 547 q 450 610 493 589 q 361 632 407 632 q 251 582 289 632 q 214 439 214 532 z "},"e":{"ha":683,"x_min":35,"x_max":642,"o":"m 640 396 l 642 393 l 640 393 l 640 392 l 194 392 q 263 204 204 271 q 414 138 321 138 q 540 168 483 138 q 613 243 596 199 l 633 235 q 504 47 585 114 q 319 -19 424 -19 q 115 76 194 -19 q 35 310 35 171 q 128 582 35 469 q 372 694 222 694 q 568 615 497 694 q 640 396 639 536 m 192 443 l 192 433 l 461 433 l 461 446 q 428 598 461 543 q 340 653 396 653 q 233 590 274 653 q 192 443 192 526 z "},"f":{"ha":538,"x_min":21,"x_max":593,"o":"m 125 681 q 220 886 140 808 q 426 964 300 964 l 593 964 l 593 756 l 583 756 q 475 881 525 844 q 372 917 425 917 q 292 888 319 917 q 265 804 265 860 q 272 744 265 776 q 290 681 278 711 l 557 681 l 526 606 l 290 606 l 290 118 l 417 -1 l 21 -1 l 124 118 l 124 593 l 26 679 l 33 676 l 26 681 l 125 681 z "},"g":{"ha":703,"x_min":28,"x_max":657,"o":"m 374 697 q 409 696 392 697 q 444 690 426 694 l 621 818 l 626 817 q 610 713 621 756 q 575 619 599 669 q 611 557 599 592 q 624 485 624 522 q 536 295 624 374 q 310 217 449 217 q 267 219 288 217 q 226 228 246 222 q 181 182 188 192 q 175 165 175 172 q 194 119 175 136 q 251 99 213 103 l 625 99 q 649 44 640 74 q 657 -15 657 14 q 560 -235 657 -149 q 306 -322 463 -322 q 99 -282 171 -322 q 28 -165 28 -242 q 58 -96 28 -128 q 146 -39 88 -64 q 87 7 111 -25 q 63 74 63 39 q 90 156 63 118 q 192 239 117 193 q 97 317 131 264 q 63 435 63 369 q 148 621 63 544 q 374 697 233 697 m 368 256 q 425 292 406 256 q 444 401 444 329 q 408 585 444 513 q 314 657 371 657 q 258 624 276 657 q 240 519 240 592 q 276 331 240 406 q 368 256 311 256 m 325 -290 q 489 -245 425 -290 q 553 -137 553 -200 q 548 -90 553 -110 q 533 -58 543 -71 l 179 -58 q 145 -100 157 -76 q 133 -153 133 -124 q 182 -256 133 -221 q 325 -290 231 -290 z "},"h":{"ha":867,"x_min":28,"x_max":839,"o":"m 131 786 l 36 893 l 297 986 l 297 571 q 398 666 336 632 q 526 700 460 700 q 681 642 626 700 q 735 478 735 583 l 735 119 l 736 119 l 839 0 l 467 0 l 568 118 l 568 431 q 540 569 568 532 q 446 606 513 606 q 365 585 403 606 q 297 524 328 564 l 297 119 l 400 0 l 28 0 l 131 119 l 131 786 z "},"i":{"ha":442,"x_min":35,"x_max":407,"o":"m 335 888 l 217 758 l 97 888 l 217 1015 l 335 888 m 138 119 l 138 494 l 43 601 l 304 694 l 304 119 l 407 0 l 35 0 l 138 119 z "},"j":{"ha":361,"x_min":28,"x_max":319,"o":"m 319 888 l 201 758 l 82 888 l 201 1015 l 319 888 m 122 494 l 28 601 l 289 694 l 289 101 l 290 101 l 290 -90 q 274 -153 290 -122 q 222 -218 257 -185 q 162 -268 203 -236 q 108 -312 121 -300 l 99 -308 q 115 -266 110 -292 q 122 -204 121 -240 l 122 494 z "},"k":{"ha":804,"x_min":28,"x_max":804,"o":"m 131 800 l 36 907 l 297 986 l 297 336 l 528 571 l 468 681 l 767 681 l 767 671 l 622 586 l 422 406 l 692 100 l 804 13 l 804 0 l 558 0 l 519 61 l 297 324 l 297 119 l 400 0 l 28 0 l 131 119 l 131 800 z "},"l":{"ha":428,"x_min":28,"x_max":400,"o":"m 400 0 l 28 0 l 131 119 l 131 611 l 36 718 l 131 747 l 131 800 l 36 907 l 297 986 l 297 119 l 400 0 z "},"m":{"ha":1269,"x_min":28,"x_max":1242,"o":"m 131 494 l 36 601 l 297 694 l 297 593 q 395 672 343 646 q 508 697 447 697 q 630 666 581 697 q 700 575 679 635 q 803 663 740 629 q 929 697 865 697 q 1083 639 1029 697 q 1138 475 1138 581 l 1138 119 l 1139 119 l 1242 0 l 869 0 l 971 118 l 971 428 q 943 566 971 529 q 849 603 915 603 q 778 586 811 603 q 713 532 746 569 q 715 504 714 518 q 717 475 717 490 l 717 119 l 718 119 l 821 0 l 449 0 l 550 118 l 550 428 q 522 566 550 529 q 428 603 494 603 q 360 588 392 603 q 297 539 328 572 l 297 119 l 400 0 l 28 0 l 131 119 l 131 494 z "},"n":{"ha":871,"x_min":28,"x_max":843,"o":"m 738 475 l 738 119 l 843 0 l 471 0 l 571 119 l 571 428 q 543 566 571 529 q 449 603 515 603 q 368 582 406 603 q 300 521 331 561 l 300 119 l 400 0 l 28 0 l 133 119 l 133 494 l 39 601 l 300 694 l 300 568 q 401 663 339 629 q 529 697 463 697 q 683 639 629 697 q 738 475 738 581 z "},"o":{"ha":774,"x_min":42,"x_max":722,"o":"m 42 310 q 147 585 42 472 q 421 697 251 697 q 639 604 556 697 q 722 371 722 511 q 617 96 722 208 q 343 -17 513 -17 q 125 76 208 -17 q 42 310 42 169 m 419 36 q 514 97 479 36 q 549 244 549 157 q 491 529 549 414 q 346 644 433 644 q 250 594 282 644 q 218 436 218 543 q 275 151 218 265 q 419 36 332 36 z "},"p":{"ha":839,"x_min":28,"x_max":788,"o":"m 131 524 l 36 631 l 297 710 l 297 590 q 395 670 344 646 q 510 694 446 694 q 710 601 633 694 q 788 368 788 508 q 762 223 788 294 q 689 99 736 151 q 574 15 640 43 q 426 -12 507 -12 q 368 -8 403 -12 q 297 4 333 -4 l 297 -179 l 426 -299 l 28 -299 l 131 -179 l 131 524 m 624 242 q 565 495 624 399 q 413 592 506 592 q 357 582 385 592 q 297 553 329 572 l 297 143 q 384 74 336 99 q 481 49 432 49 q 589 94 554 49 q 624 242 624 140 z "},"q":{"ha":774,"x_min":42,"x_max":794,"o":"m 692 -179 l 794 -299 l 396 -299 l 525 -179 l 525 126 q 426 23 482 60 q 313 -14 371 -14 q 115 78 189 -14 q 42 313 42 169 q 142 576 42 472 q 408 681 242 681 q 488 677 453 681 q 565 664 522 674 l 692 694 l 692 -179 m 207 439 q 263 217 207 294 q 421 139 319 139 q 476 146 453 139 q 525 172 500 153 l 525 547 q 443 610 486 589 q 354 632 400 632 q 244 582 282 632 q 207 439 207 532 z "},"r":{"ha":639,"x_min":35,"x_max":618,"o":"m 43 681 l 618 681 l 618 435 l 607 435 q 514 578 568 528 q 400 629 460 629 q 338 611 360 629 q 310 551 317 593 q 306 508 307 533 q 304 418 304 482 l 304 119 l 433 0 l 35 0 l 138 119 l 138 574 l 43 681 z "},"s":{"ha":571,"x_min":35,"x_max":536,"o":"m 264 -14 q 142 -6 203 -14 q 47 18 82 3 l 35 263 l 46 263 q 149 104 74 169 q 306 39 224 39 q 382 63 354 39 q 410 129 410 86 q 382 194 410 167 q 261 254 354 221 q 161 294 193 278 q 107 331 129 311 q 58 399 74 360 q 42 488 42 438 q 107 625 42 569 q 274 681 172 681 l 426 681 l 478 710 l 478 479 l 469 481 q 369 595 429 553 q 247 636 310 638 q 180 610 204 635 q 156 544 156 586 q 183 488 156 511 q 306 433 211 464 q 406 394 374 410 q 463 361 439 378 q 518 294 500 332 q 536 210 536 257 q 456 48 536 110 q 264 -14 375 -14 z "},"t":{"ha":583,"x_min":14,"x_max":539,"o":"m 106 593 l 14 681 l 272 878 l 272 681 l 539 681 l 508 606 l 272 606 l 272 264 q 297 131 272 168 q 385 94 321 94 q 464 116 426 94 q 521 175 501 138 l 538 153 q 424 24 485 64 q 283 -17 364 -17 q 152 38 199 -17 q 106 197 106 93 l 106 593 z "},"u":{"ha":821,"x_min":7,"x_max":793,"o":"m 111 561 l 7 682 l 278 682 l 278 256 q 306 117 278 154 q 400 81 333 81 q 471 98 436 81 q 532 146 506 115 l 532 561 l 429 682 l 699 682 l 699 114 l 793 0 l 532 -8 l 532 103 q 437 15 489 43 q 319 -14 385 -14 q 165 44 219 -14 q 111 208 111 103 l 111 561 z "},"v":{"ha":754,"x_min":7,"x_max":747,"o":"m 435 186 l 603 592 l 501 681 l 747 681 l 669 593 l 396 -19 l 390 -31 l 363 -31 l 85 593 l 7 681 l 374 681 l 272 592 l 418 233 l 435 186 z "},"w":{"ha":1143,"x_min":0,"x_max":1150,"o":"m 386 -31 l 356 -31 l 92 568 l 0 681 l 368 681 l 267 592 l 413 233 l 429 186 l 553 485 l 517 568 l 425 681 l 792 681 l 692 592 l 836 233 l 853 203 l 1003 592 l 903 681 l 1150 681 l 1068 594 l 811 -31 l 781 -31 l 583 417 l 386 -31 z "},"x":{"ha":811,"x_min":7,"x_max":811,"o":"m 472 382 l 694 90 l 811 0 l 415 0 l 504 92 l 368 271 l 221 89 l 297 0 l 7 0 l 131 88 l 326 326 l 124 593 l 22 681 l 401 681 l 313 592 l 433 433 l 557 592 l 481 681 l 772 681 l 649 593 l 472 382 z "},"y":{"ha":743,"x_min":0,"x_max":743,"o":"m 343 14 l 92 568 l 0 681 l 368 681 l 267 592 l 413 233 l 429 186 l 597 592 l 496 681 l 743 681 l 661 594 l 338 -179 l 438 -299 l 139 -299 l 261 -174 l 343 14 z "},"z":{"ha":703,"x_min":28,"x_max":675,"o":"m 667 290 l 675 288 l 651 21 l 651 0 l 28 0 l 446 631 l 231 631 l 93 422 l 85 422 l 85 706 l 204 681 l 671 681 l 253 50 l 504 50 l 667 290 z "},"{":{"ha":411,"x_min":15,"x_max":340,"o":"m 226 522 q 199 481 215 500 q 160 444 182 461 q 104 412 136 428 q 71 394 72 396 l 71 389 q 104 372 72 388 q 160 339 136 356 q 199 303 182 322 q 228 261 215 283 q 244 213 239 238 q 250 160 250 188 q 249 126 250 142 q 244 82 247 110 q 239 26 240 49 q 238 -22 238 4 q 261 -146 238 -110 q 340 -182 285 -182 l 338 -225 q 169 -172 224 -225 q 115 -6 115 -118 q 117 28 115 10 q 124 88 118 47 q 131 154 129 132 q 132 194 132 176 q 117 284 132 244 q 74 344 101 324 q 51 359 61 354 q 15 371 40 364 l 15 413 q 51 424 40 419 q 74 439 61 429 q 117 499 101 460 q 132 589 132 539 q 131 629 132 607 q 124 696 129 651 q 117 755 118 736 q 115 789 115 774 q 169 955 115 901 q 338 1008 224 1008 l 340 965 q 261 929 285 965 q 238 806 238 893 q 239 757 238 779 q 244 701 240 735 q 249 658 247 674 q 250 624 250 642 q 244 570 250 596 q 226 522 239 544 z "},"|":{"ha":449,"x_min":138,"x_max":261,"o":"m 138 972 l 261 972 l 261 -208 l 138 -208 l 138 972 z "},"}":{"ha":411,"x_min":26,"x_max":351,"o":"m 140 261 q 168 303 151 283 q 207 339 185 322 q 263 372 231 356 q 296 389 294 388 l 296 394 q 263 412 294 396 q 207 444 231 428 q 168 481 185 461 q 139 522 151 500 q 122 571 128 546 q 117 624 117 596 q 118 658 117 642 q 122 701 119 674 q 128 757 126 735 q 129 806 129 779 q 106 929 129 893 q 26 965 82 965 l 29 1008 q 197 955 143 1008 q 251 789 251 901 q 250 755 251 774 q 243 696 249 736 q 236 629 238 651 q 235 589 235 607 q 250 499 235 539 q 293 439 265 460 q 316 424 306 429 q 351 413 326 419 l 351 371 q 316 359 326 364 q 293 344 306 354 q 250 284 265 324 q 235 194 235 244 q 236 154 235 176 q 243 88 238 132 q 250 28 249 47 q 251 -6 251 10 q 197 -172 251 -118 q 29 -225 143 -225 l 26 -182 q 106 -146 82 -182 q 129 -22 129 -110 q 128 26 129 4 q 122 82 126 49 q 118 126 119 110 q 117 160 117 142 q 122 213 117 188 q 140 261 128 239 z "},"~":{"ha":554,"x_min":65,"x_max":526,"o":"m 65 633 l 153 785 l 444 767 l 506 814 l 526 806 l 444 663 l 140 681 l 85 621 l 65 633 z "},"Ä":{"ha":1014,"x_min":17,"x_max":1013,"o":"m 435 1153 l 328 1031 l 221 1153 l 328 1274 l 435 1153 m 758 1153 l 653 1031 l 544 1153 l 653 1274 l 758 1153 m 713 96 l 628 297 l 267 297 l 192 108 l 324 0 l 17 0 l 115 110 l 468 965 l 533 965 l 908 93 l 1013 0 l 585 0 l 713 96 m 444 740 l 289 353 l 606 353 l 444 740 z "},"Å":{"ha":1014,"x_min":17,"x_max":1013,"o":"m 636 1151 q 597 1056 636 1096 q 500 1015 557 1015 q 404 1056 444 1015 q 364 1151 364 1096 q 404 1248 364 1208 q 500 1288 444 1288 q 597 1248 557 1288 q 636 1151 636 1208 m 589 1151 q 563 1214 589 1188 q 500 1240 536 1240 q 438 1214 464 1240 q 411 1151 411 1188 q 438 1089 411 1115 q 500 1063 464 1063 q 563 1089 536 1063 q 589 1151 589 1115 m 713 96 l 628 297 l 267 297 l 192 108 l 324 0 l 17 0 l 115 110 l 468 965 l 533 965 l 908 93 l 1013 0 l 585 0 l 713 96 m 444 740 l 289 353 l 606 353 l 444 740 z "},"Ç":{"ha":904,"x_min":49,"x_max":856,"o":"m 568 951 l 785 951 l 785 669 l 767 669 q 651 835 725 775 q 482 894 576 894 q 310 806 371 894 q 250 564 250 718 q 327 259 250 372 q 539 146 404 146 q 710 186 636 146 q 835 307 783 226 l 856 293 q 690 65 794 147 q 454 -17 585 -17 q 159 109 269 -17 q 49 443 49 235 q 88 640 49 544 q 200 808 128 736 q 365 915 271 878 q 568 951 458 951 m 368 -106 l 431 -17 l 474 -17 l 457 -47 q 562 -97 542 -79 q 582 -133 582 -114 q 543 -208 582 -179 q 446 -237 504 -237 q 387 -227 413 -237 q 332 -190 361 -217 l 347 -165 q 393 -194 368 -185 q 449 -204 418 -204 q 499 -195 479 -204 q 519 -172 519 -186 q 503 -146 519 -157 q 453 -126 488 -135 q 410 -118 439 -124 q 368 -110 381 -112 l 368 -106 z "},"É":{"ha":822,"x_min":56,"x_max":767,"o":"m 558 1207 l 379 1028 l 358 1028 l 376 1207 l 558 1207 m 751 304 l 767 301 l 751 0 l 56 0 l 139 147 l 139 807 l 56 951 l 725 951 l 725 660 l 708 660 l 556 901 l 319 901 l 319 517 l 699 517 l 699 454 l 319 454 l 319 50 l 568 50 l 751 304 z "},"Ñ":{"ha":1050,"x_min":33,"x_max":1001,"o":"m 628 1122 q 654 1133 640 1122 q 689 1169 668 1143 l 710 1161 l 628 1021 q 543 1028 625 1021 q 414 1036 461 1036 q 390 1023 403 1036 q 358 976 378 1010 l 339 989 l 426 1138 q 506 1130 428 1138 q 628 1122 583 1122 m 1001 951 l 899 822 l 899 81 l 958 0 l 743 0 l 233 679 l 233 119 l 351 0 l 65 0 l 168 129 l 168 775 l 33 951 l 263 951 l 832 158 l 832 832 l 713 951 l 1001 951 z "},"Ö":{"ha":1025,"x_min":49,"x_max":976,"o":"m 451 1150 l 346 1028 l 238 1150 l 346 1271 l 451 1150 m 776 1150 l 671 1028 l 563 1150 l 671 1271 l 776 1150 m 49 435 q 190 819 49 668 q 565 969 332 969 q 860 837 743 969 q 976 518 976 704 q 835 134 976 285 q 460 -17 693 -17 q 165 116 282 -17 q 49 435 49 249 m 558 42 q 720 135 658 42 q 782 350 782 228 q 693 747 782 585 q 467 910 604 910 q 303 826 360 910 q 246 603 246 743 q 334 204 246 367 q 558 42 422 42 z "},"Ü":{"ha":1060,"x_min":56,"x_max":1011,"o":"m 533 1150 l 421 1022 l 308 1150 l 421 1276 l 533 1150 m 874 1150 l 763 1022 l 649 1150 l 763 1276 l 874 1150 m 56 951 l 442 951 l 339 804 l 339 328 q 397 113 339 181 q 603 46 454 46 q 782 140 722 46 q 842 418 842 233 l 842 826 l 735 951 l 1011 951 l 908 826 l 908 385 q 897 250 908 303 q 851 133 886 197 q 733 20 813 61 q 551 -21 654 -21 q 256 63 354 -21 q 157 307 157 146 l 157 806 l 56 951 z "},"á":{"ha":742,"x_min":35,"x_max":714,"o":"m 319 946 l 494 946 l 315 767 l 294 767 l 319 946 m 611 90 l 714 0 l 443 0 l 443 117 q 317 20 379 54 q 201 -14 254 -14 q 78 27 122 -14 q 35 146 35 68 q 124 298 35 233 q 443 431 213 363 q 440 523 443 494 q 429 571 436 551 q 389 617 417 603 q 314 632 361 632 q 181 590 238 632 q 78 458 124 549 l 68 458 l 68 681 l 676 681 l 610 590 l 610 90 l 611 90 m 218 192 q 246 121 218 146 q 322 96 274 96 q 385 111 354 96 q 443 154 417 126 l 443 393 q 276 307 335 360 q 218 192 218 254 z "},"à":{"ha":742,"x_min":35,"x_max":714,"o":"m 421 946 l 446 767 l 425 767 l 246 946 l 421 946 m 611 90 l 714 0 l 443 0 l 443 117 q 317 20 379 54 q 201 -14 254 -14 q 78 27 122 -14 q 35 146 35 68 q 124 298 35 233 q 443 431 213 363 q 440 523 443 494 q 429 571 436 551 q 389 617 417 603 q 314 632 361 632 q 181 590 238 632 q 78 458 124 549 l 68 458 l 68 681 l 676 681 l 610 590 l 610 90 l 611 90 m 218 192 q 246 121 218 146 q 322 96 274 96 q 385 111 354 96 q 443 154 417 126 l 443 393 q 276 307 335 360 q 218 192 218 254 z "},"â":{"ha":742,"x_min":35,"x_max":714,"o":"m 354 868 l 236 767 l 217 767 l 296 946 l 411 946 l 492 767 l 469 767 l 354 868 m 611 90 l 714 0 l 443 0 l 443 117 q 317 20 379 54 q 201 -14 254 -14 q 78 27 122 -14 q 35 146 35 68 q 124 298 35 233 q 443 431 213 363 q 440 523 443 494 q 429 571 436 551 q 389 617 417 603 q 314 632 361 632 q 181 590 238 632 q 78 458 124 549 l 68 458 l 68 681 l 676 681 l 610 590 l 610 90 l 611 90 m 218 192 q 246 121 218 146 q 322 96 274 96 q 385 111 354 96 q 443 154 417 126 l 443 393 q 276 307 335 360 q 218 192 218 254 z "},"ä":{"ha":742,"x_min":35,"x_max":714,"o":"m 315 864 l 222 757 l 128 864 l 222 969 l 315 864 m 600 864 l 507 757 l 413 864 l 507 969 l 600 864 m 611 90 l 714 0 l 443 0 l 443 117 q 317 20 379 54 q 201 -14 254 -14 q 78 27 122 -14 q 35 146 35 68 q 124 298 35 233 q 443 431 213 363 q 440 523 443 494 q 429 571 436 551 q 389 617 417 603 q 314 632 361 632 q 181 590 238 632 q 78 458 124 549 l 68 458 l 68 681 l 676 681 l 610 590 l 610 90 l 611 90 m 218 192 q 246 121 218 146 q 322 96 274 96 q 385 111 354 96 q 443 154 417 126 l 443 393 q 276 307 335 360 q 218 192 218 254 z "},"ã":{"ha":742,"x_min":35,"x_max":714,"o":"m 260 840 q 236 827 249 840 q 204 781 224 814 l 185 793 l 272 944 q 299 942 285 943 q 340 936 313 940 q 417 928 392 931 q 465 926 443 926 q 492 937 478 926 q 526 974 506 947 l 547 965 l 465 822 q 438 825 453 824 q 393 831 422 826 q 310 838 338 836 q 260 840 283 840 m 611 90 l 714 0 l 443 0 l 443 117 q 317 20 379 54 q 201 -14 254 -14 q 78 27 122 -14 q 35 146 35 68 q 124 298 35 233 q 443 431 213 363 q 440 523 443 494 q 429 571 436 551 q 389 617 417 603 q 314 632 361 632 q 181 590 238 632 q 78 458 124 549 l 68 458 l 68 681 l 676 681 l 610 590 l 610 90 l 611 90 m 218 192 q 246 121 218 146 q 322 96 274 96 q 385 111 354 96 q 443 154 417 126 l 443 393 q 276 307 335 360 q 218 192 218 254 z "},"å":{"ha":742,"x_min":35,"x_max":714,"o":"m 489 882 q 453 794 489 831 q 365 758 417 758 q 278 794 314 758 q 242 882 242 831 q 278 969 242 933 q 365 1006 314 1006 q 453 969 417 1006 q 489 882 489 933 m 450 882 q 426 942 450 918 q 365 967 401 967 q 306 942 331 967 q 281 882 281 918 q 306 822 281 847 q 365 797 331 797 q 426 822 401 797 q 450 882 450 847 m 611 90 l 714 0 l 443 0 l 443 117 q 317 20 379 54 q 201 -14 254 -14 q 78 27 122 -14 q 35 146 35 68 q 124 298 35 233 q 443 431 213 363 q 440 523 443 494 q 429 571 436 551 q 389 617 417 603 q 314 632 361 632 q 181 590 238 632 q 78 458 124 549 l 68 458 l 68 681 l 676 681 l 610 590 l 610 90 l 611 90 m 218 192 q 246 121 218 146 q 322 96 274 96 q 385 111 354 96 q 443 154 417 126 l 443 393 q 276 307 335 360 q 218 192 218 254 z "},"ç":{"ha":650,"x_min":42,"x_max":608,"o":"m 408 681 l 575 681 l 575 492 l 568 492 q 468 597 522 561 q 354 632 414 632 q 241 581 281 632 q 201 439 201 531 q 256 223 201 297 q 408 149 310 149 q 523 188 469 149 q 593 274 576 226 l 608 268 q 503 71 579 151 q 331 -17 428 -10 l 314 -47 q 412 -94 390 -76 q 433 -133 433 -112 q 394 -198 433 -171 q 303 -225 356 -225 q 247 -215 272 -225 q 199 -185 222 -206 l 208 -165 q 253 -192 229 -183 q 306 -201 278 -201 q 352 -194 333 -201 q 371 -178 371 -187 q 351 -148 371 -161 q 275 -119 332 -135 q 238 -108 246 -112 q 229 -100 229 -104 l 288 -15 q 108 86 175 -6 q 42 313 42 178 q 141 576 42 471 q 408 681 240 681 z "},"é":{"ha":690,"x_min":42,"x_max":649,"o":"m 339 943 l 514 943 l 335 764 l 314 764 l 339 943 m 647 396 l 649 393 l 647 393 l 647 392 l 201 392 q 269 204 211 271 q 421 138 328 138 q 547 168 490 138 q 619 243 603 199 l 640 235 q 511 47 592 114 q 326 -19 431 -19 q 122 76 201 -19 q 42 310 42 171 q 135 582 42 469 q 379 694 229 694 q 575 615 504 694 q 647 396 646 536 m 199 443 l 199 433 l 468 433 l 468 446 q 435 598 468 543 q 347 653 403 653 q 240 590 281 653 q 199 443 199 526 z "},"è":{"ha":690,"x_min":42,"x_max":649,"o":"m 367 943 l 392 764 l 371 764 l 192 943 l 367 943 m 647 396 l 649 393 l 647 393 l 647 392 l 201 392 q 269 204 211 271 q 421 138 328 138 q 547 168 490 138 q 619 243 603 199 l 640 235 q 511 47 592 114 q 326 -19 431 -19 q 122 76 201 -19 q 42 310 42 171 q 135 582 42 469 q 379 694 229 694 q 575 615 504 694 q 647 396 646 536 m 199 443 l 199 433 l 468 433 l 468 446 q 435 598 468 543 q 347 653 403 653 q 240 590 281 653 q 199 443 199 526 z "},"ê":{"ha":690,"x_min":42,"x_max":649,"o":"m 476 764 l 361 865 l 243 764 l 224 764 l 303 943 l 418 943 l 499 764 l 476 764 m 647 396 l 649 393 l 647 393 l 647 392 l 201 392 q 269 204 211 271 q 421 138 328 138 q 547 168 490 138 q 619 243 603 199 l 640 235 q 511 47 592 114 q 326 -19 431 -19 q 122 76 201 -19 q 42 310 42 171 q 135 582 42 469 q 379 694 229 694 q 575 615 504 694 q 647 396 646 536 m 199 443 l 199 433 l 468 433 l 468 446 q 435 598 468 543 q 347 653 403 653 q 240 590 281 653 q 199 443 199 526 z "},"ë":{"ha":690,"x_min":42,"x_max":649,"o":"m 222 967 l 315 861 l 222 754 l 128 861 l 222 967 m 507 967 l 600 861 l 507 754 l 413 861 l 507 967 m 647 396 l 649 393 l 647 393 l 647 392 l 201 392 q 269 204 211 271 q 421 138 328 138 q 547 168 490 138 q 619 243 603 199 l 640 235 q 511 47 592 114 q 326 -19 431 -19 q 122 76 201 -19 q 42 310 42 171 q 135 582 42 469 q 379 694 229 694 q 575 615 504 694 q 647 396 646 536 m 199 443 l 199 433 l 468 433 l 468 446 q 435 598 468 543 q 347 653 403 653 q 240 590 281 653 q 199 443 199 526 z "},"í":{"ha":442,"x_min":35,"x_max":407,"o":"m 161 946 l 336 946 l 157 767 l 136 767 l 161 946 m 138 119 l 138 494 l 43 601 l 304 694 l 304 119 l 407 0 l 35 0 l 138 119 z "},"ì":{"ha":442,"x_min":35,"x_max":407,"o":"m 50 946 l 225 946 l 250 767 l 229 767 l 50 946 m 138 119 l 138 494 l 43 601 l 304 694 l 304 119 l 407 0 l 35 0 l 138 119 z "},"î":{"ha":442,"x_min":35,"x_max":407,"o":"m 208 868 l 90 767 l 71 767 l 150 946 l 265 946 l 346 767 l 324 767 l 208 868 m 138 119 l 138 494 l 43 601 l 304 694 l 304 119 l 407 0 l 35 0 l 138 119 z "},"ï":{"ha":542,"x_min":35,"x_max":507,"o":"m 222 864 l 129 757 l 35 864 l 129 969 l 222 864 m 507 864 l 414 757 l 319 864 l 414 969 l 507 864 m 201 119 l 201 494 l 107 601 l 368 694 l 368 119 l 471 0 l 99 0 l 201 119 z "},"ñ":{"ha":867,"x_min":28,"x_max":839,"o":"m 328 840 q 304 827 317 840 q 272 781 292 814 l 253 793 l 340 944 q 367 942 353 943 q 408 936 381 940 q 485 928 460 931 q 533 926 511 926 q 560 937 546 926 q 594 974 574 947 l 615 965 l 533 822 q 506 825 521 824 q 461 831 490 826 q 378 838 406 836 q 328 840 351 840 m 131 494 l 36 601 l 297 694 l 297 568 q 398 663 336 629 q 526 697 460 697 q 681 639 626 697 q 735 475 735 581 l 735 119 l 736 119 l 839 0 l 467 0 l 568 118 l 568 428 q 540 566 568 529 q 446 603 513 603 q 365 582 403 603 q 297 521 328 561 l 297 119 l 400 0 l 28 0 l 131 119 l 131 494 z "},"ó":{"ha":774,"x_min":42,"x_max":722,"o":"m 340 946 l 515 946 l 336 767 l 315 767 l 340 946 m 42 310 q 147 585 42 472 q 421 697 251 697 q 639 604 556 697 q 722 371 722 511 q 617 96 722 208 q 343 -17 513 -17 q 125 76 208 -17 q 42 310 42 169 m 419 36 q 514 97 479 36 q 549 244 549 157 q 491 529 549 414 q 346 644 433 644 q 250 594 282 644 q 218 436 218 543 q 275 151 218 265 q 419 36 332 36 z "},"ò":{"ha":774,"x_min":42,"x_max":722,"o":"m 400 946 l 425 767 l 404 767 l 225 946 l 400 946 m 42 310 q 147 585 42 472 q 421 697 251 697 q 639 604 556 697 q 722 371 722 511 q 617 96 722 208 q 343 -17 513 -17 q 125 76 208 -17 q 42 310 42 169 m 419 36 q 514 97 479 36 q 549 244 549 157 q 491 529 549 414 q 346 644 433 644 q 250 594 282 644 q 218 436 218 543 q 275 151 218 265 q 419 36 332 36 z "},"ô":{"ha":774,"x_min":42,"x_max":722,"o":"m 382 868 l 264 767 l 244 767 l 324 946 l 439 946 l 519 767 l 497 767 l 382 868 m 42 310 q 147 585 42 472 q 421 697 251 697 q 639 604 556 697 q 722 371 722 511 q 617 96 722 208 q 343 -17 513 -17 q 125 76 208 -17 q 42 310 42 169 m 419 36 q 514 97 479 36 q 549 244 549 157 q 491 529 549 414 q 346 644 433 644 q 250 594 282 644 q 218 436 218 543 q 275 151 218 265 q 419 36 332 36 z "},"ö":{"ha":774,"x_min":42,"x_max":722,"o":"m 328 868 l 235 761 l 140 868 l 235 974 l 328 868 m 613 868 l 519 761 l 425 868 l 519 974 l 613 868 m 42 310 q 147 585 42 472 q 421 697 251 697 q 639 604 556 697 q 722 371 722 511 q 617 96 722 208 q 343 -17 513 -17 q 125 76 208 -17 q 42 310 42 169 m 419 36 q 514 97 479 36 q 549 244 549 157 q 491 529 549 414 q 346 644 433 644 q 250 594 282 644 q 218 436 218 543 q 275 151 218 265 q 419 36 332 36 z "},"õ":{"ha":774,"x_min":42,"x_max":722,"o":"m 188 749 l 275 900 l 468 882 l 529 929 l 550 921 l 468 778 l 263 796 l 207 736 l 188 749 m 42 310 q 147 585 42 472 q 421 697 251 697 q 639 604 556 697 q 722 371 722 511 q 617 96 722 208 q 343 -17 513 -17 q 125 76 208 -17 q 42 310 42 169 m 419 36 q 514 97 479 36 q 549 244 549 157 q 491 529 549 414 q 346 644 433 644 q 250 594 282 644 q 218 436 218 543 q 275 151 218 265 q 419 36 332 36 z "},"ú":{"ha":821,"x_min":7,"x_max":793,"o":"m 379 946 l 554 946 l 375 767 l 354 767 l 379 946 m 111 561 l 7 682 l 278 682 l 278 256 q 306 117 278 154 q 400 81 333 81 q 471 98 436 81 q 532 146 506 115 l 532 561 l 429 682 l 699 682 l 699 114 l 793 0 l 532 -8 l 532 103 q 437 15 489 43 q 319 -14 385 -14 q 165 44 219 -14 q 111 208 111 103 l 111 561 z "},"ù":{"ha":821,"x_min":7,"x_max":793,"o":"m 385 946 l 410 767 l 389 767 l 210 946 l 385 946 m 111 561 l 7 682 l 278 682 l 278 256 q 306 117 278 154 q 400 81 333 81 q 471 98 436 81 q 532 146 506 115 l 532 561 l 429 682 l 699 682 l 699 114 l 793 0 l 532 -8 l 532 103 q 437 15 489 43 q 319 -14 385 -14 q 165 44 219 -14 q 111 208 111 103 l 111 561 z "},"û":{"ha":821,"x_min":7,"x_max":793,"o":"m 372 868 l 254 767 l 235 767 l 314 946 l 429 946 l 510 767 l 488 767 l 372 868 m 111 561 l 7 682 l 278 682 l 278 256 q 306 117 278 154 q 400 81 333 81 q 471 98 436 81 q 532 146 506 115 l 532 561 l 429 682 l 699 682 l 699 114 l 793 0 l 532 -8 l 532 103 q 437 15 489 43 q 319 -14 385 -14 q 165 44 219 -14 q 111 208 111 103 l 111 561 z "},"ü":{"ha":821,"x_min":7,"x_max":793,"o":"m 335 868 l 242 761 l 147 868 l 242 974 l 335 868 m 619 868 l 526 761 l 432 868 l 526 974 l 619 868 m 111 561 l 7 682 l 278 682 l 278 256 q 306 117 278 154 q 400 81 333 81 q 471 98 436 81 q 532 146 506 115 l 532 561 l 429 682 l 699 682 l 699 114 l 793 0 l 532 -8 l 532 103 q 437 15 489 43 q 319 -14 385 -14 q 165 44 219 -14 q 111 208 111 103 l 111 561 z "},"†":{"ha":542,"x_min":14,"x_max":528,"o":"m 188 625 l 133 625 l 14 522 l 14 681 l 225 681 l 188 972 l 354 972 l 317 681 l 408 681 l 528 783 l 528 625 l 354 625 l 354 503 l 281 -111 l 261 -111 l 188 503 l 188 625 z "},"°":{"ha":356,"x_min":35,"x_max":321,"o":"m 321 976 q 279 875 321 917 q 178 833 238 833 q 76 875 118 833 q 35 976 35 917 q 76 1078 35 1036 q 178 1119 118 1119 q 279 1078 238 1119 q 321 976 321 1036 m 258 976 q 234 1033 258 1008 q 178 1057 210 1057 q 122 1033 146 1057 q 97 976 97 1008 q 122 920 97 944 q 178 896 146 896 q 234 920 210 896 q 258 976 258 944 z "},"¢":{"ha":622,"x_min":35,"x_max":601,"o":"m 422 764 l 568 764 l 568 575 l 561 575 q 492 656 529 624 q 414 703 456 689 l 354 238 q 376 233 365 235 q 401 232 388 232 q 516 271 463 232 q 586 357 569 310 l 601 351 q 499 158 572 238 q 332 68 426 78 l 313 -81 l 263 -81 l 276 68 q 101 171 167 79 q 35 396 35 263 q 118 638 35 533 q 340 760 201 742 l 354 901 l 440 901 l 422 764 m 336 715 q 231 661 267 711 q 194 522 194 611 q 220 361 194 426 q 294 263 246 296 l 336 715 z "},"£":{"ha":774,"x_min":11,"x_max":708,"o":"m 700 206 l 708 206 l 686 0 l 11 0 l 68 61 l 72 61 q 158 148 131 65 q 185 389 185 231 l 185 431 l 69 428 l 69 494 l 185 494 q 211 614 188 553 q 272 722 235 675 q 368 800 314 774 q 488 826 422 826 l 654 826 l 654 638 l 649 638 q 549 742 604 706 q 433 778 494 778 q 353 749 381 778 q 326 665 326 721 q 334 601 326 633 q 374 497 342 568 l 582 497 l 582 438 l 385 433 q 372 314 383 367 q 338 221 361 261 q 285 153 317 185 q 182 69 254 121 l 182 67 l 582 88 l 700 206 z "},"§":{"ha":833,"x_min":31,"x_max":735,"o":"m 458 0 l 367 0 l 367 376 l 372 436 q 335 425 357 429 q 296 421 314 421 q 108 495 185 421 q 31 681 31 569 q 116 883 31 815 q 367 951 201 951 l 368 950 l 422 950 l 422 951 l 614 951 l 614 949 l 735 949 l 640 842 l 639 842 l 639 0 l 547 0 l 547 890 l 458 890 l 458 0 z "},"•":{"ha":482,"x_min":63,"x_max":419,"o":"m 419 365 l 242 174 l 63 365 l 242 558 l 419 365 z "},"¶":{"ha":810,"x_min":31,"x_max":735,"o":"m 343 -136 q 361 -83 356 -111 q 367 -10 367 -54 l 367 379 l 372 439 q 335 428 357 432 q 296 424 314 424 q 108 498 185 424 q 31 683 31 572 q 115 885 31 817 q 367 951 200 953 l 735 951 l 640 844 l 639 844 l 639 0 l 547 0 l 547 893 l 458 893 l 458 36 q 422 -78 458 -26 q 347 -139 385 -131 l 343 -136 z "},"ß":{"ha":811,"x_min":28,"x_max":776,"o":"m 131 119 l 131 593 l 33 681 l 131 681 q 159 776 131 717 q 231 879 188 836 q 324 944 272 922 q 433 965 375 965 q 607 919 549 965 q 665 782 665 872 q 621 663 665 731 q 515 543 576 596 q 567 510 526 536 q 635 467 608 485 q 693 417 668 442 q 736 368 718 393 q 766 303 756 336 q 776 233 776 269 q 713 56 776 118 q 529 -6 650 -6 q 446 -4 490 -6 q 367 0 401 -3 l 376 229 l 392 229 q 472 90 425 138 q 571 42 518 42 q 642 70 618 42 q 665 154 665 99 q 635 235 665 192 q 549 325 606 279 q 451 395 504 363 q 368 438 397 428 q 485 613 454 543 q 517 763 517 682 q 480 876 517 833 q 385 918 443 918 q 277 861 313 918 q 278 724 242 804 l 297 681 l 297 0 l 28 0 l 131 119 z "},"®":{"ha":618,"x_min":28,"x_max":590,"o":"m 308 1136 q 508 1054 426 1136 q 590 856 590 972 q 508 657 590 739 q 308 575 426 575 q 110 657 192 575 q 28 856 28 739 q 110 1054 28 972 q 308 1136 192 1136 m 308 1099 q 137 1027 208 1099 q 65 856 65 956 q 137 684 65 756 q 308 613 208 613 q 480 684 408 613 q 551 856 551 756 q 481 1028 551 957 q 308 1099 410 1099 m 414 743 l 464 697 l 368 697 l 289 844 l 267 842 l 267 747 l 303 697 l 169 697 l 204 747 l 204 971 l 169 1022 l 283 1022 q 388 1000 349 1022 q 426 938 426 978 q 406 890 426 911 q 351 857 386 869 l 414 743 m 267 858 q 331 879 306 860 q 356 931 356 899 q 333 988 356 968 q 267 1007 311 1007 l 267 858 z "},"©":{"ha":1014,"x_min":64,"x_max":950,"o":"m 507 918 q 820 788 690 918 q 950 475 950 658 q 820 162 950 292 q 507 32 690 32 q 194 162 324 32 q 64 475 64 292 q 194 788 64 658 q 507 918 324 918 m 507 858 q 236 746 349 858 q 124 475 124 633 q 236 204 124 317 q 507 92 349 92 q 778 204 665 92 q 890 475 890 317 q 778 746 890 633 q 507 858 665 858 m 553 768 l 692 768 l 692 586 l 681 586 q 606 685 657 649 q 492 721 556 721 q 397 672 431 721 q 363 542 363 624 q 413 359 363 429 q 549 289 463 289 q 659 313 611 289 q 725 374 707 338 l 739 365 q 645 235 711 286 q 494 183 579 183 q 306 262 378 183 q 233 464 233 340 q 322 681 233 594 q 553 768 410 768 z "},"™":{"ha":1311,"x_min":63,"x_max":1249,"o":"m 169 1088 l 69 946 l 63 946 l 63 1117 l 529 1117 l 529 946 l 524 946 l 424 1089 l 347 1089 l 347 674 l 404 592 l 189 592 l 244 674 l 244 1088 l 169 1088 m 883 583 l 686 978 l 686 667 l 747 592 l 590 592 l 649 667 l 649 1036 l 583 1117 l 736 1117 l 919 735 l 1086 1117 l 1247 1117 l 1190 1054 l 1190 674 l 1249 592 l 1026 592 l 1090 674 l 1090 1040 l 890 583 l 883 583 z "},"´":{"ha":296,"x_min":54,"x_max":254,"o":"m 79 946 l 254 946 l 75 767 l 54 767 l 79 946 z "},"¨":{"ha":569,"x_min":49,"x_max":521,"o":"m 236 868 l 143 761 l 49 868 l 143 974 l 236 868 m 521 868 l 428 761 l 333 868 l 428 974 l 521 868 z "},"≠":{"ha":631,"x_min":63,"x_max":592,"o":"m 531 706 l 592 706 l 492 563 l 592 563 l 592 463 l 422 463 l 294 279 l 592 279 l 592 179 l 225 179 l 124 35 l 63 35 l 164 179 l 63 179 l 63 279 l 233 279 l 361 463 l 63 463 l 63 563 l 431 563 l 531 706 z "},"Æ":{"ha":1264,"x_min":0,"x_max":1229,"o":"m 1222 304 l 1229 301 l 1214 0 l 518 0 l 601 147 l 601 297 l 288 297 l 175 106 l 290 0 l 0 0 l 104 118 l 551 868 l 444 953 l 719 953 l 718 951 l 1188 951 l 1188 660 l 1179 660 l 1010 901 l 782 901 l 782 517 l 1161 517 l 1161 461 l 782 461 l 782 50 l 1022 50 l 1222 304 m 319 353 l 601 353 l 601 831 l 596 835 l 578 799 l 319 353 z "},"Ø":{"ha":1044,"x_min":42,"x_max":1003,"o":"m 835 875 l 910 958 l 1003 958 l 883 825 q 963 683 935 764 q 990 518 990 603 q 849 134 990 285 q 474 -17 707 -17 q 333 8 400 -17 q 214 81 267 33 l 135 -7 l 42 -7 l 167 132 q 90 272 117 193 q 63 435 63 351 q 204 819 63 668 q 579 969 346 969 q 717 945 651 969 q 835 875 782 921 m 481 910 q 317 826 374 910 q 260 603 260 743 q 272 438 260 518 q 310 290 285 358 l 711 738 q 608 866 667 822 q 481 910 550 910 m 572 42 q 734 135 672 42 q 796 350 796 228 q 782 519 796 438 q 742 668 768 600 l 339 221 q 442 88 382 133 q 572 42 501 42 z "},"∞":{"ha":772,"x_min":56,"x_max":717,"o":"m 449 485 q 515 558 482 536 q 590 581 549 581 q 681 531 646 581 q 717 413 717 481 q 671 267 717 325 q 550 208 625 208 q 499 216 522 208 q 454 239 475 224 q 432 257 443 246 q 383 311 421 268 q 302 223 342 246 q 210 200 263 200 q 100 253 144 200 q 56 383 56 306 q 110 538 56 472 q 256 603 165 603 q 359 578 315 603 q 449 485 403 553 m 686 404 q 657 482 686 451 q 576 513 628 513 q 508 500 535 513 q 461 461 481 488 q 481 417 465 453 q 507 363 497 381 q 544 316 525 331 q 588 301 564 301 q 659 331 632 301 q 686 404 686 360 m 86 385 q 122 300 86 332 q 215 268 158 268 q 306 288 265 268 q 369 342 347 307 q 331 424 340 408 q 313 453 322 440 q 267 490 293 478 q 204 501 240 501 q 115 472 144 501 q 86 385 86 443 z "},"±":{"ha":719,"x_min":56,"x_max":664,"o":"m 408 331 l 408 132 l 664 132 l 664 35 l 56 35 l 56 132 l 299 132 l 299 331 l 63 331 l 63 431 l 299 431 l 299 671 l 408 713 l 408 431 l 657 431 l 657 331 l 408 331 z "},"≤":{"ha":733,"x_min":63,"x_max":671,"o":"m 669 190 l 71 426 l 71 526 l 669 751 l 669 651 l 276 492 l 669 290 l 669 190 m 63 35 l 63 132 l 671 132 l 671 35 l 63 35 z "},"≥":{"ha":733,"x_min":63,"x_max":671,"o":"m 663 526 l 663 426 l 64 190 l 64 290 l 457 492 l 64 651 l 64 751 l 663 526 m 63 132 l 671 132 l 671 35 l 63 35 l 63 132 z "},"¥":{"ha":1013,"x_min":42,"x_max":971,"o":"m 971 826 l 828 696 l 608 393 l 771 393 l 771 324 l 596 324 l 596 254 l 771 254 l 771 185 l 596 185 l 596 140 l 713 0 l 299 0 l 415 140 l 415 185 l 233 185 l 233 253 l 415 253 l 415 324 l 233 324 l 233 392 l 372 392 l 168 679 l 42 826 l 488 826 l 369 679 l 368 679 l 532 467 l 554 435 l 736 682 l 618 826 l 971 826 z "},"μ":{"ha":821,"x_min":7,"x_max":793,"o":"m 699 114 l 793 0 l 532 -8 l 532 103 q 437 15 489 43 q 319 -14 385 -14 q 294 -12 306 -14 q 269 -4 282 -10 l 278 -43 l 278 -297 l 8 -297 l 111 -178 l 111 561 l 7 682 l 278 682 l 278 256 q 306 117 278 154 q 400 81 333 81 q 471 98 436 81 q 532 146 506 115 l 532 561 l 429 682 l 699 682 l 699 114 z "},"∂":{"ha":719,"x_min":42,"x_max":668,"o":"m 115 819 l 106 819 l 106 976 l 285 976 q 448 932 374 976 q 575 801 522 888 q 644 642 619 731 q 668 464 668 553 q 569 110 668 240 q 307 -19 471 -19 q 112 67 182 -19 q 42 308 42 153 q 122 544 42 451 q 338 638 203 638 q 427 615 383 638 q 511 546 471 592 q 446 830 501 731 q 300 929 390 929 q 204 901 251 929 q 115 819 157 874 m 357 597 q 255 515 290 597 q 219 283 219 433 q 251 98 219 169 q 336 26 282 26 q 465 151 414 26 q 515 446 515 276 q 515 481 515 469 q 514 503 515 493 q 447 571 493 544 q 357 597 400 597 z "},"∑":{"ha":894,"x_min":56,"x_max":846,"o":"m 825 133 l 846 133 l 825 -226 l 60 -226 l 418 300 l 56 969 l 824 969 l 824 678 l 807 678 l 654 919 l 319 919 l 588 424 l 246 -87 l 717 -87 l 825 133 z "},"∏":{"ha":1019,"x_min":56,"x_max":964,"o":"m 964 969 l 861 822 l 861 -87 l 964 -235 l 585 -235 l 688 -87 l 688 911 l 332 911 l 332 -87 l 435 -235 l 56 -235 l 158 -87 l 158 822 l 56 969 l 964 969 z "},"π":{"ha":888,"x_min":35,"x_max":831,"o":"m 663 186 q 678 103 663 131 q 726 75 694 75 q 776 85 754 75 q 817 117 797 94 l 831 100 q 738 8 779 32 q 640 -15 697 -15 q 532 28 568 -15 q 496 158 496 71 l 496 525 l 317 525 l 317 0 l 72 0 l 189 74 l 201 525 l 189 525 q 105 503 136 525 q 44 428 74 482 l 35 428 l 43 469 q 106 642 71 604 q 235 681 140 681 l 793 681 l 793 525 l 663 525 l 663 186 z "},"∫":{"ha":611,"x_min":-17,"x_max":632,"o":"m 465 1088 l 632 1088 l 632 865 l 622 865 q 537 993 582 947 q 451 1039 492 1039 q 388 992 407 1039 q 372 846 368 946 l 403 103 q 338 -156 408 -46 q 150 -265 267 -265 l -17 -265 l -17 -43 l -7 -43 q 78 -171 33 -125 q 164 -217 124 -217 q 228 -169 208 -217 q 243 -24 247 -122 l 213 719 q 278 978 207 868 q 465 1088 349 1088 z "},"æ":{"ha":1076,"x_min":35,"x_max":1035,"o":"m 661 681 q 711 693 685 689 q 767 697 738 697 q 963 617 892 697 q 1035 394 1035 536 l 589 394 q 657 207 599 274 q 808 140 715 140 q 934 171 878 140 q 1007 246 990 201 l 1028 238 q 899 50 979 117 q 714 -17 818 -17 q 573 23 636 -17 q 471 135 510 63 q 336 25 407 64 q 201 -14 265 -14 q 78 27 122 -14 q 35 146 35 68 q 124 298 35 233 q 443 431 213 363 q 425 590 456 543 q 314 636 394 636 q 176 594 239 636 q 76 478 114 553 l 68 478 l 68 681 l 661 681 m 735 656 q 627 592 668 656 q 586 446 586 529 l 586 431 l 854 431 q 856 438 856 433 q 856 449 856 442 q 823 601 856 546 q 735 656 790 656 m 436 390 q 274 305 331 357 q 218 192 218 253 q 246 121 218 146 q 322 96 274 96 q 394 115 358 96 q 456 168 431 133 q 436 240 443 203 q 429 313 429 276 q 431 350 429 331 q 436 390 432 369 z "},"ø":{"ha":782,"x_min":49,"x_max":740,"o":"m 568 668 l 647 783 l 740 783 l 631 625 q 708 514 681 581 q 735 371 735 447 q 630 96 735 208 q 356 -17 525 -17 q 281 -8 317 -17 q 213 17 244 0 l 142 -86 l 49 -86 l 151 63 q 80 173 106 108 q 54 310 54 238 q 159 585 54 472 q 433 697 264 697 q 503 690 469 697 q 568 668 536 683 m 358 644 q 263 594 294 644 q 231 436 231 543 q 238 322 231 376 q 260 221 246 267 l 490 554 q 429 622 463 599 q 358 644 396 644 m 432 36 q 526 97 492 36 q 561 244 561 157 q 552 365 561 307 q 526 474 543 424 l 294 136 q 358 62 322 88 q 432 36 393 36 z "},"¿":{"ha":700,"x_min":92,"x_max":639,"o":"m 467 439 l 349 568 l 467 696 l 586 568 l 467 439 m 594 -69 l 606 -68 l 639 -306 l 519 -306 q 192 -253 293 -306 q 92 -90 92 -200 q 123 13 92 -35 q 219 100 154 60 q 346 165 267 131 q 436 204 425 199 l 453 354 l 486 354 l 511 185 q 361 84 419 153 q 303 -60 303 15 q 331 -205 303 -156 q 411 -254 358 -254 q 522 -210 478 -254 q 594 -69 565 -167 z "},"¡":{"ha":301,"x_min":32,"x_max":269,"o":"m 32 571 l 150 699 l 269 571 l 150 442 l 32 571 m 250 -250 l 157 -314 l 65 -250 l 132 357 l 182 357 l 250 -250 z "},"¬":{"ha":775,"x_min":46,"x_max":729,"o":"m 728 432 l 728 371 l 729 371 l 729 76 l 639 76 l 639 335 l 46 335 l 46 432 l 728 432 z "},"√":{"ha":732,"x_min":0,"x_max":732,"o":"m 429 -137 l 410 -137 l 140 497 l 0 593 l 236 725 l 461 146 l 649 1172 l 732 1172 l 429 -137 z "},"ƒ":{"ha":833,"x_min":-17,"x_max":710,"o":"m 290 719 q 368 988 301 888 q 543 1088 435 1088 l 710 1088 l 710 865 l 700 865 q 615 993 660 947 q 529 1039 569 1039 q 474 1003 492 1039 q 450 846 457 968 l 439 681 l 665 681 l 665 624 l 436 618 l 403 103 q 325 -165 392 -65 q 150 -265 258 -265 l -17 -265 l -17 -43 l -7 -43 q 78 -171 33 -125 q 164 -217 124 -217 q 219 -182 201 -217 q 243 -24 236 -147 l 283 615 l 160 613 l 160 681 l 288 681 l 290 719 z "},"≈":{"ha":626,"x_min":63,"x_max":564,"o":"m 63 403 l 150 550 l 482 532 l 543 579 l 564 571 l 482 432 l 138 450 l 82 390 l 63 403 m 63 164 l 150 311 l 482 293 l 543 340 l 564 332 l 482 193 l 138 211 l 82 151 l 63 164 z "},"«":{"ha":711,"x_min":17,"x_max":710,"o":"m 389 658 l 403 635 l 94 342 l 247 342 l 403 39 l 389 25 l 17 342 l 389 658 m 696 658 l 710 635 l 401 342 l 554 342 l 710 39 l 696 25 l 324 342 l 696 658 z "},"»":{"ha":711,"x_min":10,"x_max":703,"o":"m 24 25 l 10 49 l 318 342 l 165 342 l 10 644 l 24 658 l 396 342 l 24 25 m 331 25 l 317 49 l 625 342 l 472 342 l 317 644 l 331 658 l 703 342 l 331 25 z "},"…":{"ha":1060,"x_min":35,"x_max":1025,"o":"m 272 92 l 154 -36 l 35 92 l 154 219 l 272 92 m 649 92 l 531 -36 l 411 92 l 531 219 l 649 92 m 1025 92 l 907 -36 l 788 92 l 907 219 l 1025 92 z "},"À":{"ha":1014,"x_min":17,"x_max":1013,"o":"m 493 1207 l 511 1028 l 490 1028 l 311 1207 l 493 1207 m 713 96 l 628 297 l 267 297 l 192 108 l 324 0 l 17 0 l 115 110 l 468 965 l 533 965 l 908 93 l 1013 0 l 585 0 l 713 96 m 444 740 l 289 353 l 606 353 l 444 740 z "},"Ã":{"ha":1010,"x_min":7,"x_max":1003,"o":"m 599 1167 q 625 1177 611 1167 q 660 1214 639 1188 l 681 1206 l 599 1065 q 514 1073 596 1065 q 385 1081 432 1081 q 361 1067 374 1081 q 329 1021 349 1054 l 310 1033 l 397 1182 q 476 1174 399 1182 q 599 1167 554 1167 m 899 93 l 1003 0 l 575 0 l 703 96 l 618 297 l 257 297 l 182 108 l 314 0 l 7 0 l 106 110 l 458 965 l 524 965 l 899 93 m 282 360 l 593 360 l 435 740 l 282 360 z "},"Õ":{"ha":1025,"x_min":49,"x_max":976,"o":"m 383 1074 q 360 1060 372 1074 q 328 1014 347 1047 l 308 1026 l 396 1175 q 475 1167 397 1175 q 597 1160 553 1160 q 624 1170 610 1160 q 658 1207 638 1181 l 679 1199 l 597 1058 q 513 1066 594 1058 q 383 1074 431 1074 m 49 435 q 190 819 49 668 q 565 969 332 969 q 860 837 743 969 q 976 518 976 704 q 835 134 976 285 q 460 -17 693 -17 q 165 116 282 -17 q 49 435 49 249 m 558 42 q 720 135 658 42 q 782 350 782 228 q 693 747 782 585 q 467 910 604 910 q 303 826 360 910 q 246 603 246 743 q 334 204 246 367 q 558 42 422 42 z "},"Œ":{"ha":1381,"x_min":49,"x_max":1325,"o":"m 878 901 l 878 517 l 1257 517 l 1257 461 l 878 461 l 878 50 l 1126 50 l 1310 296 l 1325 293 l 1310 0 l 460 0 q 165 126 281 0 q 49 435 49 251 q 190 808 49 664 q 565 951 331 951 l 1283 951 l 1283 668 l 1267 668 l 1114 901 l 878 901 m 558 50 l 696 50 l 696 900 l 525 900 q 319 800 393 900 q 246 550 246 700 q 333 191 246 332 q 558 50 419 50 z "},"œ":{"ha":1163,"x_min":49,"x_max":1122,"o":"m 701 350 q 768 194 717 249 q 900 140 819 140 q 1024 171 967 140 q 1096 246 1081 201 l 1115 238 q 990 51 1071 119 q 810 -17 910 -17 q 694 13 747 -17 q 603 96 640 42 q 487 12 553 40 q 342 -17 421 -17 q 129 76 210 -17 q 49 310 49 168 q 150 585 49 472 q 415 697 251 697 q 539 669 483 697 q 633 590 594 642 q 735 670 676 643 q 861 697 793 697 q 1052 616 982 697 q 1122 394 1122 535 l 701 394 q 702 383 701 390 q 703 371 703 375 q 702 361 703 368 q 701 350 701 354 m 831 656 q 734 594 771 656 q 696 444 697 533 l 697 431 l 944 431 q 916 596 947 536 q 831 656 885 656 m 414 36 q 504 97 471 36 q 538 244 538 157 q 483 530 538 415 q 344 644 428 644 q 253 594 283 644 q 224 436 224 543 q 277 151 224 265 q 414 36 331 36 z "},"–":{"ha":694,"x_min":0,"x_max":694,"o":"m 0 432 l 694 432 l 694 335 l 0 335 l 0 432 z "},"—":{"ha":1250,"x_min":0,"x_max":1250,"o":"m 0 432 l 1250 432 l 1250 335 l 0 335 l 0 432 z "},"“":{"ha":590,"x_min":42,"x_max":547,"o":"m 154 596 q 75 663 108 624 q 42 731 42 701 q 90 856 42 793 q 246 988 138 918 l 265 974 q 199 901 222 938 q 175 829 175 864 q 180 801 175 814 q 215 757 185 789 l 269 714 l 154 596 m 432 596 q 353 663 386 624 q 319 731 319 701 q 367 856 319 793 q 524 988 415 918 l 543 974 q 476 901 500 938 q 453 829 453 864 q 458 801 453 814 q 493 757 463 789 l 547 714 l 432 596 z "},"”":{"ha":590,"x_min":42,"x_max":547,"o":"m 157 988 q 236 921 203 960 q 269 853 269 882 q 222 728 269 790 q 65 596 174 665 l 46 610 q 113 683 89 646 q 136 754 136 719 q 131 782 136 769 q 96 826 126 794 l 42 869 l 157 988 m 435 988 q 514 921 481 960 q 547 853 547 882 q 499 728 547 790 q 343 596 451 665 l 324 610 q 390 683 367 646 q 414 754 414 719 q 409 782 414 769 q 374 826 404 794 l 319 869 l 435 988 z "},"‘":{"ha":344,"x_min":42,"x_max":269,"o":"m 154 596 q 75 663 108 624 q 42 731 42 701 q 90 856 42 793 q 246 988 138 918 l 265 974 q 199 901 222 938 q 175 829 175 864 q 180 801 175 814 q 215 757 185 789 l 269 714 l 154 596 z "},"’":{"ha":344,"x_min":42,"x_max":269,"o":"m 157 988 q 236 921 203 960 q 269 853 269 882 q 222 728 269 790 q 65 596 174 665 l 46 610 q 113 683 89 646 q 136 754 136 719 q 131 782 136 769 q 96 826 126 794 l 42 869 l 157 988 z "},"÷":{"ha":619,"x_min":32,"x_max":588,"o":"m 426 607 l 311 481 l 194 607 l 311 732 l 426 607 m 32 432 l 588 432 l 588 335 l 32 335 l 32 432 m 426 161 l 311 35 l 194 161 l 311 286 l 426 161 z "},"◊":{"ha":872,"x_min":56,"x_max":817,"o":"m 56 417 l 436 818 l 817 417 l 436 15 l 56 417 m 719 417 l 436 719 l 154 417 l 436 113 l 719 417 z "},"ÿ":{"ha":743,"x_min":0,"x_max":743,"o":"m 357 864 l 264 757 l 169 864 l 264 969 l 357 864 m 642 864 l 549 757 l 454 864 l 549 969 l 642 864 m 343 14 l 92 568 l 0 681 l 368 681 l 267 592 l 413 233 l 429 186 l 597 592 l 496 681 l 743 681 l 661 594 l 339 -179 l 439 -299 l 139 -299 l 261 -174 l 343 14 z "},"Ÿ":{"ha":957,"x_min":14,"x_max":943,"o":"m 454 1153 l 347 1031 l 240 1153 l 347 1274 l 454 1153 m 778 1153 l 672 1031 l 564 1153 l 672 1274 l 778 1153 m 800 821 l 568 442 l 568 140 l 685 0 l 271 0 l 388 140 l 388 390 l 140 804 l 14 951 l 460 951 l 342 804 l 340 804 l 504 542 l 526 496 l 708 807 l 590 951 l 943 951 l 800 821 z "},"⁄":{"ha":653,"x_min":6,"x_max":699,"o":"m 6 -46 l 632 999 l 699 999 l 71 -46 l 6 -46 z "},"¤":{"ha":647,"x_min":69,"x_max":574,"o":"m 158 551 l 69 636 l 111 681 l 201 594 q 260 624 229 614 q 324 635 290 635 q 386 625 356 635 q 443 596 417 615 l 532 681 l 574 636 l 488 554 q 519 496 508 528 q 529 429 529 464 q 518 362 529 394 q 486 301 507 329 l 574 218 l 532 174 l 442 260 q 387 233 417 242 q 324 224 357 224 q 260 233 292 224 q 203 261 229 243 l 111 174 l 69 218 l 160 304 q 128 363 139 331 q 118 429 118 394 q 128 494 118 463 q 158 551 139 525 m 472 429 q 428 533 472 490 q 324 576 385 576 q 219 533 263 576 q 176 429 176 490 q 219 325 176 368 q 324 282 263 282 q 428 325 385 282 q 472 429 472 368 z "},"‹":{"ha":411,"x_min":17,"x_max":403,"o":"m 389 658 l 403 644 l 94 342 l 247 342 l 403 39 l 389 25 l 17 342 l 389 658 z "},"›":{"ha":411,"x_min":8,"x_max":394,"o":"m 22 25 l 8 39 l 317 342 l 164 342 l 8 644 l 22 658 l 394 342 l 22 25 z "},"‡":{"ha":542,"x_min":14,"x_max":528,"o":"m 317 625 l 317 250 l 408 250 l 528 353 l 528 194 l 317 194 l 354 -97 l 188 -97 l 225 194 l 133 194 l 14 92 l 14 250 l 225 250 l 225 625 l 133 625 l 14 522 l 14 681 l 225 681 l 188 972 l 354 972 l 317 681 l 408 681 l 528 783 l 528 625 l 317 625 z "},"·":{"ha":251,"x_min":7,"x_max":244,"o":"m 244 365 l 126 238 l 7 365 l 126 494 l 244 365 z "},"‚":{"ha":315,"x_min":42,"x_max":269,"o":"m 157 221 q 236 154 203 193 q 269 86 269 115 q 222 -39 269 24 q 65 -171 174 -101 l 46 -157 q 113 -84 89 -121 q 136 -12 136 -47 q 131 15 136 3 q 96 60 126 28 l 42 103 l 157 221 z "},"„":{"ha":593,"x_min":42,"x_max":547,"o":"m 157 222 q 236 156 203 194 q 269 88 269 117 q 222 -37 269 25 q 65 -169 174 -100 l 46 -156 q 113 -83 89 -119 q 136 -11 136 -46 q 131 17 136 4 q 96 61 126 29 l 42 104 l 157 222 m 435 222 q 514 156 481 194 q 547 88 547 117 q 499 -37 547 25 q 343 -169 451 -100 l 324 -156 q 390 -83 367 -119 q 414 -11 414 -46 q 409 17 414 4 q 374 61 404 29 l 319 104 l 435 222 z "},"‰":{"ha":1571,"x_min":46,"x_max":1525,"o":"m 167 -46 l 821 999 l 892 999 l 236 -46 l 167 -46 m 46 669 q 116 874 46 789 q 296 960 186 960 q 439 890 383 960 q 494 717 494 819 q 424 512 494 597 q 243 426 354 426 q 101 497 156 426 q 46 669 46 567 m 296 465 q 356 513 333 465 q 379 622 379 560 q 341 833 379 746 q 247 921 303 921 q 185 881 206 921 q 164 764 164 842 q 202 552 164 639 q 296 465 240 465 m 560 229 q 629 434 560 349 q 808 519 699 519 q 953 449 897 519 q 1008 276 1008 379 q 938 72 1008 157 q 757 -14 868 -14 q 615 56 669 -14 q 560 229 560 126 m 1078 229 q 1147 434 1078 349 q 1326 519 1217 519 q 1469 449 1414 519 q 1525 276 1525 379 q 1455 72 1525 157 q 1275 -14 1385 -14 q 1133 56 1188 -14 q 1078 229 1078 126 m 808 25 q 869 73 846 25 q 893 182 893 121 q 855 393 893 306 q 761 481 817 481 q 698 440 719 481 q 676 324 676 400 q 715 113 676 200 q 808 25 753 25 m 1326 25 q 1388 73 1364 25 q 1411 182 1411 121 q 1373 393 1411 306 q 1279 481 1335 481 q 1216 440 1238 481 q 1194 324 1194 400 q 1233 112 1194 199 q 1326 25 1271 25 z "},"Â":{"ha":1014,"x_min":17,"x_max":1013,"o":"m 503 1125 l 379 1028 l 358 1028 l 444 1207 l 560 1207 l 647 1028 l 626 1028 l 503 1125 m 713 96 l 628 297 l 267 297 l 192 108 l 324 0 l 17 0 l 115 110 l 468 965 l 533 965 l 908 93 l 1013 0 l 585 0 l 713 96 m 444 740 l 289 353 l 606 353 l 444 740 z "},"Ê":{"ha":822,"x_min":56,"x_max":767,"o":"m 421 1125 l 297 1028 l 276 1028 l 363 1207 l 478 1207 l 565 1028 l 544 1028 l 421 1125 m 751 304 l 767 301 l 751 0 l 56 0 l 139 147 l 139 807 l 56 951 l 725 951 l 725 660 l 708 660 l 556 901 l 319 901 l 319 517 l 699 517 l 699 454 l 319 454 l 319 50 l 568 50 l 751 304 z "},"Á":{"ha":1014,"x_min":17,"x_max":1013,"o":"m 499 1207 l 681 1207 l 501 1028 l 481 1028 l 499 1207 m 713 96 l 628 297 l 267 297 l 192 108 l 324 0 l 17 0 l 115 110 l 468 965 l 533 965 l 908 93 l 1013 0 l 585 0 l 713 96 m 444 740 l 289 353 l 606 353 l 444 740 z "},"Ë":{"ha":822,"x_min":56,"x_max":767,"o":"m 367 1151 l 261 1029 l 153 1151 l 261 1272 l 367 1151 m 692 1151 l 586 1029 l 478 1151 l 586 1272 l 692 1151 m 751 304 l 767 301 l 751 0 l 56 0 l 139 147 l 139 807 l 56 951 l 725 951 l 725 660 l 708 660 l 556 901 l 319 901 l 319 517 l 699 517 l 699 454 l 319 454 l 319 50 l 568 50 l 751 304 z "},"È":{"ha":822,"x_min":56,"x_max":767,"o":"m 457 1207 l 475 1028 l 454 1028 l 275 1207 l 457 1207 m 751 304 l 767 301 l 751 0 l 56 0 l 139 147 l 139 807 l 56 951 l 725 951 l 725 660 l 708 660 l 556 901 l 319 901 l 319 517 l 699 517 l 699 454 l 319 454 l 319 50 l 568 50 l 751 304 z "},"Í":{"ha":497,"x_min":56,"x_max":442,"o":"m 214 1207 l 396 1207 l 217 1028 l 196 1028 l 214 1207 m 339 804 l 339 147 l 442 0 l 56 0 l 158 147 l 158 804 l 56 951 l 442 951 l 339 804 z "},"Î":{"ha":497,"x_min":56,"x_max":442,"o":"m 253 1125 l 129 1028 l 108 1028 l 194 1207 l 310 1207 l 397 1028 l 376 1028 l 253 1125 m 339 804 l 339 147 l 442 0 l 56 0 l 158 147 l 158 804 l 56 951 l 442 951 l 339 804 z "},"Ï":{"ha":619,"x_min":42,"x_max":578,"o":"m 256 1153 l 147 1031 l 42 1153 l 147 1274 l 256 1153 m 578 1153 l 472 1031 l 364 1153 l 472 1274 l 578 1153 m 400 804 l 400 147 l 503 0 l 117 0 l 219 147 l 219 804 l 117 951 l 503 951 l 400 804 z "},"Ì":{"ha":497,"x_min":56,"x_max":442,"o":"m 285 1207 l 303 1028 l 282 1028 l 103 1207 l 285 1207 m 339 804 l 339 147 l 442 0 l 56 0 l 158 147 l 158 804 l 56 951 l 442 951 l 339 804 z "},"Ó":{"ha":1025,"x_min":49,"x_max":976,"o":"m 478 1207 l 660 1207 l 481 1028 l 460 1028 l 478 1207 m 49 435 q 190 819 49 668 q 565 969 332 969 q 860 837 743 969 q 976 518 976 704 q 835 134 976 285 q 460 -17 693 -17 q 165 116 282 -17 q 49 435 49 249 m 558 42 q 720 135 658 42 q 782 350 782 228 q 693 747 782 585 q 467 910 604 910 q 303 826 360 910 q 246 603 246 743 q 334 204 246 367 q 558 42 422 42 z "},"Ô":{"ha":1025,"x_min":49,"x_max":976,"o":"m 510 1125 l 386 1028 l 365 1028 l 451 1207 l 567 1207 l 654 1028 l 633 1028 l 510 1125 m 49 435 q 190 819 49 668 q 565 969 332 969 q 860 837 743 969 q 976 518 976 704 q 835 134 976 285 q 460 -17 693 -17 q 165 116 282 -17 q 49 435 49 249 m 558 42 q 720 135 658 42 q 782 350 782 228 q 693 747 782 585 q 467 910 604 910 q 303 826 360 910 q 246 603 246 743 q 334 204 246 367 q 558 42 422 42 z "},"Ò":{"ha":1025,"x_min":49,"x_max":976,"o":"m 471 1207 l 489 1028 l 468 1028 l 289 1207 l 471 1207 m 49 435 q 190 819 49 668 q 565 969 332 969 q 860 837 743 969 q 976 518 976 704 q 835 134 976 285 q 460 -17 693 -17 q 165 116 282 -17 q 49 435 49 249 m 558 42 q 720 135 658 42 q 782 350 782 228 q 693 747 782 585 q 467 910 604 910 q 303 826 360 910 q 246 603 246 743 q 334 204 246 367 q 558 42 422 42 z "},"Ú":{"ha":1060,"x_min":56,"x_max":1011,"o":"m 550 1207 l 732 1207 l 553 1028 l 532 1028 l 550 1207 m 56 951 l 442 951 l 339 804 l 339 328 q 397 113 339 181 q 603 46 454 46 q 782 140 722 46 q 842 418 842 233 l 842 826 l 735 951 l 1011 951 l 908 826 l 908 385 q 897 250 908 303 q 851 133 886 197 q 733 20 813 61 q 551 -21 654 -21 q 256 63 354 -21 q 157 307 157 146 l 157 806 l 56 951 z "},"Û":{"ha":1060,"x_min":56,"x_max":1011,"o":"m 574 1125 l 450 1028 l 429 1028 l 515 1207 l 631 1207 l 718 1028 l 697 1028 l 574 1125 m 56 951 l 442 951 l 339 804 l 339 328 q 397 113 339 181 q 603 46 454 46 q 782 140 722 46 q 842 418 842 233 l 842 826 l 735 951 l 1011 951 l 908 826 l 908 385 q 897 250 908 303 q 851 133 886 197 q 733 20 813 61 q 551 -21 654 -21 q 256 63 354 -21 q 157 307 157 146 l 157 806 l 56 951 z "},"Ù":{"ha":1060,"x_min":56,"x_max":1011,"o":"m 611 1207 l 629 1028 l 608 1028 l 429 1207 l 611 1207 m 56 951 l 442 951 l 339 804 l 339 328 q 397 113 339 181 q 603 46 454 46 q 782 140 722 46 q 842 418 842 233 l 842 826 l 735 951 l 1011 951 l 908 826 l 908 385 q 897 250 908 303 q 851 133 886 197 q 733 20 813 61 q 551 -21 654 -21 q 256 63 354 -21 q 157 307 157 146 l 157 806 l 56 951 z "},"ı":{"ha":442,"x_min":35,"x_max":407,"o":"m 138 119 l 138 494 l 43 601 l 304 694 l 304 119 l 407 0 l 35 0 l 138 119 z "},"ˆ":{"ha":296,"x_min":13,"x_max":288,"o":"m 150 868 l 32 767 l 13 767 l 92 946 l 207 946 l 288 767 l 265 767 l 150 868 z "},"˜":{"ha":501,"x_min":69,"x_max":432,"o":"m 144 815 q 121 802 133 815 q 89 756 108 789 l 69 768 l 157 919 q 183 917 169 918 q 225 911 197 915 q 302 903 276 906 q 350 901 328 901 q 376 912 363 901 q 411 949 390 922 l 432 940 l 350 797 q 322 800 338 799 q 278 806 307 801 q 195 813 222 811 q 144 815 168 815 z "},"¯":{"ha":456,"x_min":67,"x_max":389,"o":"m 67 826 l 389 826 l 389 742 l 67 742 l 67 826 z "},"˙":{"ha":243,"x_min":24,"x_max":219,"o":"m 219 868 l 122 756 l 24 868 l 122 979 l 219 868 z "},"˚":{"ha":286,"x_min":7,"x_max":279,"o":"m 279 882 q 240 786 279 826 q 143 746 200 746 q 47 786 88 746 q 7 882 7 826 q 47 978 7 939 q 143 1018 88 1018 q 240 978 200 1018 q 279 882 279 939 m 232 882 q 206 944 232 918 q 143 971 179 971 q 81 944 107 971 q 54 882 54 918 q 81 819 54 846 q 143 793 107 793 q 206 819 179 793 q 232 882 232 846 z "},"¸":{"ha":256,"x_min":-3,"x_max":242,"o":"m 38 -75 l 107 25 l 147 25 l 122 -22 q 220 -69 199 -51 q 242 -108 242 -87 q 205 -184 242 -156 q 111 -212 168 -212 q 51 -203 76 -212 q -3 -169 25 -193 l 13 -140 q 60 -169 35 -160 q 114 -179 86 -179 q 161 -170 143 -179 q 179 -147 179 -161 q 143 -108 179 -126 q 38 -75 107 -90 z "},"ˇ":{"ha":300,"x_min":13,"x_max":288,"o":"m 13 946 l 32 946 l 150 844 l 265 946 l 288 946 l 207 767 l 92 767 l 13 946 z "},"Ć":{"ha":904,"x_min":49,"x_max":856,"o":"m 471 1207 l 653 1207 l 474 1028 l 453 1028 l 471 1207 m 568 951 l 785 951 l 785 669 l 767 669 q 651 835 725 775 q 482 894 576 894 q 310 806 371 894 q 250 564 250 718 q 327 259 250 372 q 539 146 404 146 q 710 186 636 146 q 835 307 783 226 l 856 293 q 690 65 794 147 q 454 -17 585 -17 q 159 109 269 -17 q 49 443 49 235 q 88 640 49 544 q 200 808 128 736 q 365 915 271 878 q 568 951 458 951 z "},"Č":{"ha":904,"x_min":49,"x_max":856,"o":"m 357 1207 l 378 1207 l 501 1110 l 625 1207 l 646 1207 l 558 1028 l 443 1028 l 357 1207 m 568 951 l 785 951 l 785 669 l 767 669 q 651 835 725 775 q 482 894 576 894 q 310 806 371 894 q 250 564 250 718 q 327 259 250 372 q 539 146 404 146 q 710 186 636 146 q 835 307 783 226 l 856 293 q 690 65 794 147 q 454 -17 585 -17 q 159 109 269 -17 q 49 443 49 235 q 88 640 49 544 q 200 808 128 736 q 365 915 271 878 q 568 951 458 951 z "},"Ĉ":{"ha":904,"x_min":49,"x_max":856,"o":"m 511 1125 l 388 1028 l 367 1028 l 453 1207 l 568 1207 l 656 1028 l 635 1028 l 511 1125 m 568 951 l 785 951 l 785 669 l 767 669 q 651 835 725 775 q 482 894 576 894 q 310 806 371 894 q 250 564 250 718 q 327 259 250 372 q 539 146 404 146 q 710 186 636 146 q 835 307 783 226 l 856 293 q 690 65 794 147 q 454 -17 585 -17 q 159 109 269 -17 q 49 443 49 235 q 88 640 49 544 q 200 808 128 736 q 365 915 271 878 q 568 951 458 951 z "},"Ď":{"ha":1021,"x_min":56,"x_max":972,"o":"m 339 1207 l 360 1207 l 483 1110 l 607 1207 l 628 1207 l 540 1028 l 425 1028 l 339 1207 m 158 147 l 158 804 l 56 951 l 425 951 q 828 833 685 951 q 972 517 972 714 q 817 140 972 279 q 401 0 663 0 l 56 0 l 158 147 m 436 907 l 339 907 l 339 53 l 426 53 q 689 167 597 53 q 781 478 781 281 q 691 796 781 685 q 436 907 601 907 z "},"Ě":{"ha":822,"x_min":56,"x_max":767,"o":"m 283 1207 l 304 1207 l 428 1110 l 551 1207 l 572 1207 l 485 1028 l 369 1028 l 283 1207 m 751 304 l 767 301 l 751 0 l 56 0 l 139 147 l 139 807 l 56 951 l 725 951 l 725 660 l 708 660 l 556 901 l 319 901 l 319 517 l 699 517 l 699 454 l 319 454 l 319 50 l 568 50 l 751 304 z "},"Ė":{"ha":822,"x_min":56,"x_max":767,"o":"m 517 1139 l 419 1026 l 321 1139 l 419 1250 l 517 1139 m 751 304 l 767 301 l 751 0 l 56 0 l 139 147 l 139 807 l 56 951 l 725 951 l 725 660 l 708 660 l 556 901 l 319 901 l 319 517 l 699 517 l 699 454 l 319 454 l 319 50 l 568 50 l 751 304 z "},"Ĳ":{"ha":960,"x_min":56,"x_max":904,"o":"m 339 804 l 339 147 l 442 0 l 56 0 l 158 147 l 158 804 l 56 951 l 442 951 l 339 804 m 621 804 l 518 951 l 904 951 l 801 804 l 801 6 q 747 -122 801 -56 q 600 -244 693 -187 l 590 -239 q 613 -173 604 -211 q 621 -101 621 -135 l 621 804 z "},"Ĺ":{"ha":847,"x_min":56,"x_max":806,"o":"m 224 1207 l 406 1207 l 226 1028 l 206 1028 l 224 1207 m 608 63 l 792 300 l 806 300 l 790 0 l 56 0 l 139 147 l 139 807 l 56 951 l 425 951 l 319 806 l 319 63 l 608 63 z "},"Ľ":{"ha":853,"x_min":56,"x_max":806,"o":"m 665 988 q 744 921 711 960 q 778 853 778 882 q 730 728 778 790 q 574 596 682 665 l 554 610 q 621 683 597 646 q 644 754 644 719 q 640 782 644 769 q 604 826 635 794 l 550 869 l 665 988 m 608 63 l 792 300 l 806 300 l 790 0 l 56 0 l 139 147 l 139 807 l 56 951 l 425 951 l 319 806 l 319 63 l 608 63 z "},"Ŀ":{"ha":853,"x_min":56,"x_max":806,"o":"m 608 63 l 792 300 l 806 300 l 790 0 l 56 0 l 139 147 l 139 807 l 56 951 l 425 951 l 319 806 l 319 63 l 608 63 m 635 656 l 753 526 l 635 399 l 515 526 l 635 656 z "},"Ń":{"ha":1050,"x_min":18,"x_max":1001,"o":"m 499 1207 l 681 1207 l 501 1028 l 481 1028 l 499 1207 m 958 0 l 743 0 l 228 676 l 228 119 l 347 0 l 50 0 l 153 129 l 153 775 l 18 951 l 247 951 l 824 181 l 824 832 l 704 951 l 1001 951 l 899 822 l 899 81 l 958 0 z "},"Ň":{"ha":1050,"x_min":18,"x_max":1001,"o":"m 383 1207 l 404 1207 l 528 1110 l 651 1207 l 672 1207 l 585 1028 l 469 1028 l 383 1207 m 958 0 l 743 0 l 228 676 l 228 119 l 347 0 l 50 0 l 153 129 l 153 775 l 18 951 l 247 951 l 824 181 l 824 832 l 704 951 l 1001 951 l 899 822 l 899 81 l 958 0 z "},"Ŕ":{"ha":967,"x_min":56,"x_max":953,"o":"m 415 1207 l 597 1207 l 418 1028 l 397 1028 l 415 1207 m 590 471 l 806 136 l 953 0 l 672 0 q 485 315 529 244 q 406 433 440 385 l 339 428 l 339 147 l 442 0 l 56 0 l 158 147 l 158 804 l 56 951 l 407 951 q 706 889 606 951 q 806 706 806 826 q 749 569 806 631 q 590 471 692 508 m 339 474 q 528 535 454 476 q 601 689 601 593 q 535 854 601 799 q 339 910 469 910 l 339 474 z "},"Ř":{"ha":967,"x_min":56,"x_max":953,"o":"m 286 1207 l 307 1207 l 431 1110 l 554 1207 l 575 1207 l 488 1028 l 372 1028 l 286 1207 m 590 471 l 806 136 l 953 0 l 672 0 q 485 315 529 244 q 406 433 440 385 l 339 428 l 339 147 l 442 0 l 56 0 l 158 147 l 158 804 l 56 951 l 407 951 q 706 889 606 951 q 806 706 806 826 q 749 569 806 631 q 590 471 692 508 m 339 474 q 528 535 454 476 q 601 689 601 593 q 535 854 601 799 q 339 910 469 910 l 339 474 z "},"Ś":{"ha":740,"x_min":49,"x_max":685,"o":"m 349 1207 l 531 1207 l 351 1028 l 331 1028 l 349 1207 m 342 -11 q 192 3 271 -11 q 65 39 114 17 l 49 372 l 65 372 q 192 135 101 229 q 388 42 282 42 q 490 81 449 42 q 532 181 532 121 q 514 260 532 225 q 458 325 496 296 q 408 360 438 343 q 310 407 378 376 q 194 465 231 443 q 132 511 158 488 q 72 592 92 547 q 53 694 53 638 q 134 880 53 808 q 354 951 215 951 l 553 951 l 619 972 l 619 672 l 603 674 q 494 844 569 782 q 321 907 418 907 q 225 873 261 907 q 189 781 189 839 q 231 677 189 722 q 415 565 274 632 q 531 506 494 528 q 596 463 568 485 q 663 381 640 425 q 685 283 685 336 q 592 67 685 144 q 342 -11 500 -11 z "},"Ť":{"ha":917,"x_min":26,"x_max":864,"o":"m 292 1207 l 313 1207 l 436 1110 l 560 1207 l 581 1207 l 493 1028 l 378 1028 l 292 1207 m 215 901 l 38 646 l 26 647 l 26 951 l 864 951 l 864 647 l 853 646 l 674 903 l 535 903 l 535 147 l 638 0 l 251 0 l 354 147 l 354 901 l 215 901 z "},"Ů":{"ha":1060,"x_min":56,"x_max":1011,"o":"m 710 1122 q 670 1026 710 1067 q 574 986 631 986 q 478 1026 518 986 q 438 1122 438 1067 q 478 1219 438 1179 q 574 1258 518 1258 q 670 1219 631 1258 q 710 1122 710 1179 m 663 1122 q 636 1185 663 1158 q 574 1211 610 1211 q 511 1185 538 1211 q 485 1122 485 1158 q 511 1060 485 1086 q 574 1033 538 1033 q 636 1060 610 1033 q 663 1122 663 1086 m 56 951 l 442 951 l 339 804 l 339 328 q 397 113 339 181 q 603 46 454 46 q 782 140 722 46 q 842 418 842 233 l 842 826 l 735 951 l 1011 951 l 908 826 l 908 385 q 897 250 908 303 q 851 133 886 197 q 733 20 813 61 q 551 -21 654 -21 q 256 63 354 -21 q 157 307 157 146 l 157 806 l 56 951 z "},"Ẃ":{"ha":1396,"x_min":18,"x_max":1394,"o":"m 704 1207 l 886 1207 l 707 1028 l 686 1028 l 704 1207 m 783 867 l 999 257 l 1015 196 l 1224 831 l 1104 951 l 1394 951 l 1300 832 l 1003 -17 l 918 -17 l 717 524 l 519 -17 l 435 -17 l 90 869 l 18 951 l 397 951 l 286 867 l 514 257 l 528 206 l 686 606 l 586 872 l 517 951 l 896 951 l 783 867 z "},"Ŵ":{"ha":1396,"x_min":18,"x_max":1394,"o":"m 711 1125 l 588 1028 l 567 1028 l 653 1207 l 768 1207 l 856 1028 l 835 1028 l 711 1125 m 783 867 l 999 257 l 1015 196 l 1224 831 l 1104 951 l 1394 951 l 1300 832 l 1003 -17 l 918 -17 l 717 524 l 519 -17 l 435 -17 l 90 869 l 18 951 l 397 951 l 286 867 l 514 257 l 528 206 l 686 606 l 586 872 l 517 951 l 896 951 l 783 867 z "},"Ẅ":{"ha":1396,"x_min":18,"x_max":1394,"o":"m 649 1151 l 543 1029 l 435 1151 l 543 1272 l 649 1151 m 974 1151 l 868 1029 l 760 1151 l 868 1272 l 974 1151 m 783 867 l 999 257 l 1015 196 l 1224 831 l 1104 951 l 1394 951 l 1300 832 l 1003 -17 l 918 -17 l 717 524 l 519 -17 l 435 -17 l 90 869 l 18 951 l 397 951 l 286 867 l 514 257 l 528 206 l 686 606 l 586 872 l 517 951 l 896 951 l 783 867 z "},"Ẁ":{"ha":1396,"x_min":18,"x_max":1394,"o":"m 714 1207 l 732 1028 l 711 1028 l 532 1207 l 714 1207 m 783 867 l 999 257 l 1015 196 l 1224 831 l 1104 951 l 1394 951 l 1300 832 l 1003 -17 l 918 -17 l 717 524 l 519 -17 l 435 -17 l 90 869 l 18 951 l 397 951 l 286 867 l 514 257 l 528 206 l 686 606 l 586 872 l 517 951 l 896 951 l 783 867 z "},"Ŷ":{"ha":957,"x_min":14,"x_max":943,"o":"m 522 1125 l 399 1028 l 378 1028 l 464 1207 l 579 1207 l 667 1028 l 646 1028 l 522 1125 m 800 821 l 568 442 l 568 140 l 685 0 l 271 0 l 388 140 l 388 390 l 140 804 l 14 951 l 460 951 l 342 804 l 340 804 l 504 542 l 526 496 l 708 807 l 590 951 l 943 951 l 800 821 z "},"Ỳ":{"ha":957,"x_min":14,"x_max":943,"o":"m 524 1207 l 542 1028 l 521 1028 l 342 1207 l 524 1207 m 800 821 l 568 442 l 568 140 l 685 0 l 271 0 l 388 140 l 388 390 l 140 804 l 14 951 l 460 951 l 342 804 l 340 804 l 504 542 l 526 496 l 708 807 l 590 951 l 943 951 l 800 821 z "},"Ź":{"ha":928,"x_min":42,"x_max":865,"o":"m 424 1207 l 599 1207 l 419 1028 l 399 1028 l 424 1207 m 854 951 l 864 932 l 267 50 l 661 50 l 854 299 l 865 299 l 850 0 l 51 0 l 42 17 l 632 901 l 300 901 l 114 650 l 103 650 l 111 965 l 258 951 l 854 951 z "},"Ż":{"ha":928,"x_min":42,"x_max":865,"o":"m 558 1139 l 461 1026 l 363 1139 l 461 1250 l 558 1139 m 854 951 l 864 932 l 267 50 l 661 50 l 854 299 l 865 299 l 850 0 l 51 0 l 42 17 l 632 901 l 300 901 l 114 650 l 103 650 l 111 965 l 258 951 l 854 951 z "},"ć":{"ha":650,"x_min":42,"x_max":608,"o":"m 360 946 l 535 946 l 356 767 l 335 767 l 360 946 m 408 681 l 575 681 l 575 492 l 568 492 q 468 597 522 561 q 354 632 414 632 q 241 581 281 632 q 201 439 201 531 q 256 223 201 297 q 408 149 310 149 q 523 188 469 149 q 593 274 576 226 l 608 268 q 497 64 576 144 q 313 -17 417 -17 q 116 76 190 -17 q 42 313 42 169 q 141 576 42 471 q 408 681 240 681 z "},"č":{"ha":650,"x_min":42,"x_max":608,"o":"m 222 946 l 242 946 l 360 844 l 475 946 l 497 946 l 417 767 l 301 767 l 222 946 m 408 681 l 575 681 l 575 492 l 568 492 q 468 597 522 561 q 354 632 414 632 q 241 581 281 632 q 201 439 201 531 q 256 223 201 297 q 408 149 310 149 q 523 188 469 149 q 593 274 576 226 l 608 268 q 497 64 576 144 q 313 -17 417 -17 q 116 76 190 -17 q 42 313 42 169 q 141 576 42 471 q 408 681 240 681 z "},"ĉ":{"ha":650,"x_min":42,"x_max":608,"o":"m 354 868 l 236 767 l 217 767 l 296 946 l 411 946 l 492 767 l 469 767 l 354 868 m 408 681 l 575 681 l 575 492 l 568 492 q 468 597 522 561 q 354 632 414 632 q 241 581 281 632 q 201 439 201 531 q 256 223 201 297 q 408 149 310 149 q 523 188 469 149 q 593 274 576 226 l 608 268 q 497 64 576 144 q 313 -17 417 -17 q 116 76 190 -17 q 42 313 42 169 q 141 576 42 471 q 408 681 240 681 z "},"ċ":{"ha":650,"x_min":42,"x_max":608,"o":"m 451 871 l 354 758 l 256 871 l 354 982 l 451 871 m 408 681 l 575 681 l 575 492 l 568 492 q 468 597 522 561 q 354 632 414 632 q 241 581 281 632 q 201 439 201 531 q 256 223 201 297 q 408 149 310 149 q 523 188 469 149 q 593 274 576 226 l 608 268 q 497 64 576 144 q 313 -17 417 -17 q 116 76 190 -17 q 42 313 42 169 q 141 576 42 471 q 408 681 240 681 z "},"ď":{"ha":1053,"x_min":49,"x_max":1018,"o":"m 1018 853 q 1001 781 1018 815 q 949 715 983 746 q 879 665 919 688 q 814 638 839 643 l 794 651 q 873 707 857 686 q 889 754 889 728 q 885 775 889 765 q 875 794 882 785 q 858 813 869 803 q 844 826 847 824 l 790 869 l 906 988 q 985 921 951 960 q 1018 853 1018 882 m 699 97 l 801 0 l 532 -12 l 532 124 q 439 20 492 54 q 319 -14 386 -14 q 122 78 196 -14 q 49 313 49 169 q 149 576 49 472 q 415 681 249 681 l 532 681 l 532 800 l 438 907 l 699 986 l 699 97 m 214 439 q 270 217 214 294 q 428 139 326 139 q 484 147 460 139 q 532 174 508 156 l 532 547 q 450 610 493 589 q 361 632 407 632 q 251 582 289 632 q 214 439 214 532 z "},"ě":{"ha":689,"x_min":42,"x_max":647,"o":"m 222 946 l 242 946 l 360 844 l 475 946 l 497 946 l 417 767 l 301 767 l 222 946 m 42 313 q 135 585 42 472 q 379 697 229 697 q 576 617 504 697 q 647 394 647 536 l 201 394 q 269 207 211 274 q 421 140 328 140 q 547 171 490 140 q 619 246 603 201 l 640 238 q 511 50 592 117 q 326 -17 431 -17 q 122 78 201 -17 q 42 313 42 174 m 347 656 q 240 592 281 656 q 199 446 199 529 l 199 431 l 467 431 q 468 438 468 433 q 468 449 468 442 q 435 601 468 546 q 347 656 403 656 z "},"ė":{"ha":689,"x_min":42,"x_max":647,"o":"m 465 871 l 368 758 l 269 871 l 368 982 l 465 871 m 42 313 q 135 585 42 472 q 379 697 229 697 q 576 617 504 697 q 647 394 647 536 l 201 394 q 269 207 211 274 q 421 140 328 140 q 547 171 490 140 q 619 246 603 201 l 640 238 q 511 50 592 117 q 326 -17 431 -17 q 122 78 201 -17 q 42 313 42 174 m 347 656 q 240 592 281 656 q 199 446 199 529 l 199 431 l 467 431 q 468 438 468 433 q 468 449 468 442 q 435 601 468 546 q 347 656 403 656 z "},"ĳ":{"ha":799,"x_min":35,"x_max":757,"o":"m 335 888 l 217 758 l 97 888 l 217 1015 l 335 888 m 757 888 l 639 758 l 519 888 l 639 1015 l 757 888 m 138 119 l 138 494 l 43 601 l 304 694 l 304 119 l 407 0 l 35 0 l 138 119 m 560 494 l 465 601 l 726 694 l 726 101 l 728 101 l 728 -90 q 711 -153 728 -122 q 660 -218 694 -185 q 599 -268 640 -236 q 546 -312 558 -300 l 536 -308 q 553 -266 547 -292 q 560 -204 558 -240 l 560 494 z "},"ĺ":{"ha":428,"x_min":28,"x_max":400,"o":"m 174 1207 l 349 1207 l 169 1028 l 149 1028 l 174 1207 m 400 0 l 28 0 l 131 119 l 131 611 l 36 718 l 131 747 l 131 800 l 36 907 l 297 986 l 297 119 l 400 0 z "},"ľ":{"ha":644,"x_min":28,"x_max":610,"o":"m 610 853 q 592 781 610 815 q 540 715 575 746 q 471 665 511 688 q 406 638 431 643 l 386 651 q 465 707 449 686 q 481 754 481 728 q 477 775 481 765 q 467 794 474 785 q 450 813 461 803 q 436 826 439 824 l 382 869 l 497 988 q 576 921 543 960 q 610 853 610 882 m 400 0 l 28 0 l 131 119 l 131 611 l 36 718 l 131 747 l 131 800 l 36 907 l 297 986 l 297 119 l 400 0 z "},"ŀ":{"ha":607,"x_min":28,"x_max":633,"o":"m 400 0 l 28 0 l 131 119 l 131 611 l 36 718 l 131 747 l 131 800 l 36 907 l 297 986 l 297 119 l 400 0 m 633 422 l 515 294 l 396 422 l 515 551 l 633 422 z "},"ń":{"ha":867,"x_min":28,"x_max":839,"o":"m 428 946 l 603 946 l 424 767 l 403 767 l 428 946 m 131 494 l 36 601 l 297 694 l 297 568 q 398 663 336 629 q 526 697 460 697 q 681 639 626 697 q 735 475 735 581 l 735 119 l 839 0 l 467 0 l 568 118 l 568 428 q 540 566 568 529 q 446 603 513 603 q 365 582 403 603 q 297 521 328 561 l 297 119 l 400 0 l 28 0 l 131 119 l 131 494 z "},"ň":{"ha":867,"x_min":28,"x_max":839,"o":"m 300 946 l 319 946 l 438 844 l 553 946 l 575 946 l 494 767 l 379 767 l 300 946 m 131 494 l 36 601 l 297 694 l 297 568 q 398 663 336 629 q 526 697 460 697 q 681 639 626 697 q 735 475 735 581 l 735 119 l 736 119 l 839 0 l 467 0 l 568 118 l 568 428 q 540 566 568 529 q 446 603 513 603 q 365 582 403 603 q 297 521 328 561 l 297 119 l 400 0 l 28 0 l 131 119 l 131 494 z "},"ŕ":{"ha":639,"x_min":35,"x_max":618,"o":"m 499 946 l 319 767 l 299 767 l 324 946 l 499 946 m 43 681 l 618 681 l 618 435 l 607 435 q 514 578 568 528 q 400 629 460 629 q 338 611 360 629 q 310 551 317 593 q 306 508 307 533 q 304 418 304 482 l 304 119 l 433 0 l 35 0 l 138 119 l 138 574 l 43 681 z "},"ř":{"ha":639,"x_min":35,"x_max":618,"o":"m 415 767 l 300 767 l 221 946 l 240 946 l 358 844 l 474 946 l 496 946 l 415 767 m 43 681 l 618 681 l 618 435 l 607 435 q 514 578 568 528 q 400 629 460 629 q 338 611 360 629 q 310 551 317 593 q 306 508 307 533 q 304 418 304 482 l 304 119 l 433 0 l 35 0 l 138 119 l 138 574 l 43 681 z "},"ś":{"ha":571,"x_min":35,"x_max":536,"o":"m 283 946 l 458 946 l 279 767 l 258 767 l 283 946 m 264 -14 q 142 -6 203 -14 q 47 18 82 3 l 35 263 l 46 263 q 149 104 74 169 q 306 39 224 39 q 382 63 354 39 q 410 129 410 86 q 382 194 410 167 q 261 254 354 221 q 161 294 193 278 q 107 331 129 311 q 58 399 74 360 q 42 488 42 438 q 107 625 42 569 q 274 681 172 681 l 426 681 l 478 710 l 478 479 l 469 481 q 369 592 433 547 q 247 636 304 636 q 180 611 204 636 q 156 544 156 586 q 183 488 156 511 q 306 433 211 464 q 406 394 374 410 q 463 361 439 378 q 518 294 500 332 q 536 210 536 257 q 456 48 536 110 q 264 -14 375 -14 z "},"ť":{"ha":750,"x_min":14,"x_max":708,"o":"m 708 992 q 691 919 708 954 q 639 854 674 885 q 569 804 610 826 q 504 776 529 782 l 485 790 q 563 846 547 825 q 579 893 579 867 q 576 914 579 904 q 565 933 572 924 q 549 952 560 942 q 535 965 538 963 l 481 1008 l 596 1126 q 675 1060 642 1099 q 708 992 708 1021 m 14 681 l 272 878 l 272 681 l 539 681 l 508 606 l 272 606 l 272 264 q 297 131 272 168 q 385 94 321 94 q 464 116 426 94 q 521 175 501 138 l 538 153 q 424 24 485 64 q 283 -17 364 -17 q 152 38 199 -17 q 106 197 106 93 l 106 593 l 14 681 z "},"ů":{"ha":821,"x_min":7,"x_max":793,"o":"m 513 882 q 476 794 513 831 q 389 758 440 758 q 301 794 338 758 q 265 882 265 831 q 301 969 265 933 q 389 1006 338 1006 q 476 969 440 1006 q 513 882 513 933 m 474 882 q 449 942 474 918 q 389 967 425 967 q 329 942 354 967 q 304 882 304 918 q 329 822 304 847 q 389 797 354 797 q 449 822 425 797 q 474 882 474 847 m 111 561 l 7 682 l 278 682 l 278 256 q 306 117 278 154 q 400 81 333 81 q 471 98 436 81 q 532 146 506 115 l 532 561 l 429 682 l 699 682 l 699 114 l 793 0 l 532 -8 l 532 103 q 437 15 489 43 q 319 -14 385 -14 q 165 44 219 -14 q 111 208 111 103 l 111 561 z "},"ẃ":{"ha":1143,"x_min":0,"x_max":1150,"o":"m 581 946 l 756 946 l 576 767 l 556 767 l 581 946 m 386 -31 l 356 -31 l 92 568 l 0 681 l 368 681 l 267 592 l 413 233 l 429 186 l 553 485 l 517 568 l 425 681 l 792 681 l 692 592 l 836 233 l 853 203 l 1003 592 l 903 681 l 1150 681 l 1068 594 l 811 -31 l 781 -31 l 583 417 l 386 -31 z "},"ŵ":{"ha":1143,"x_min":0,"x_max":1150,"o":"m 588 868 l 476 767 l 457 767 l 529 946 l 644 946 l 718 767 l 696 767 l 588 868 m 386 -31 l 356 -31 l 92 568 l 0 681 l 368 681 l 267 592 l 413 233 l 429 186 l 553 485 l 517 568 l 425 681 l 792 681 l 692 592 l 836 233 l 853 203 l 1003 592 l 903 681 l 1150 681 l 1068 594 l 811 -31 l 781 -31 l 583 417 l 386 -31 z "},"ẅ":{"ha":1143,"x_min":0,"x_max":1150,"o":"m 564 864 l 471 757 l 376 864 l 471 969 l 564 864 m 849 864 l 756 757 l 661 864 l 756 969 l 849 864 m 386 -31 l 356 -31 l 92 568 l 0 681 l 368 681 l 267 592 l 413 233 l 429 186 l 553 485 l 517 568 l 425 681 l 792 681 l 692 592 l 836 233 l 853 203 l 1003 592 l 903 681 l 1150 681 l 1068 594 l 811 -31 l 781 -31 l 583 417 l 386 -31 z "},"ẁ":{"ha":1143,"x_min":0,"x_max":1150,"o":"m 636 946 l 661 767 l 640 767 l 461 946 l 636 946 m 386 -31 l 356 -31 l 92 568 l 0 681 l 368 681 l 267 592 l 413 233 l 429 186 l 553 485 l 517 568 l 425 681 l 792 681 l 692 592 l 836 233 l 853 203 l 1003 592 l 903 681 l 1150 681 l 1068 594 l 811 -31 l 781 -31 l 583 417 l 386 -31 z "},"ŷ":{"ha":743,"x_min":0,"x_max":743,"o":"m 424 868 l 306 767 l 286 767 l 365 946 l 481 946 l 561 767 l 539 767 l 424 868 m 343 14 l 92 568 l 0 681 l 368 681 l 267 592 l 413 233 l 429 186 l 597 592 l 496 681 l 743 681 l 661 594 l 338 -179 l 438 -299 l 139 -299 l 261 -174 l 343 14 z "},"ỳ":{"ha":743,"x_min":0,"x_max":743,"o":"m 244 946 l 419 946 l 444 767 l 424 767 l 244 946 m 343 14 l 92 568 l 0 681 l 368 681 l 267 592 l 413 233 l 429 186 l 597 592 l 496 681 l 743 681 l 661 594 l 338 -179 l 438 -299 l 139 -299 l 261 -174 l 343 14 z "},"ź":{"ha":704,"x_min":28,"x_max":676,"o":"m 357 946 l 532 946 l 353 767 l 332 767 l 357 946 m 204 681 l 671 681 l 253 50 l 504 50 l 676 300 l 651 21 l 651 0 l 28 0 l 446 631 l 231 631 l 85 411 l 85 706 l 204 681 z "},"ż":{"ha":704,"x_min":28,"x_max":676,"o":"m 472 868 l 375 756 l 276 868 l 375 979 l 472 868 m 204 681 l 671 681 l 253 50 l 504 50 l 676 300 l 651 21 l 651 0 l 28 0 l 446 631 l 231 631 l 85 411 l 85 706 l 204 681 z "},"ﬂ":{"ha":856,"x_min":21,"x_max":828,"o":"m 681 965 l 725 986 l 725 119 l 828 0 l 461 0 l 558 119 l 558 606 l 290 606 l 290 117 l 379 0 l 21 0 l 124 119 l 124 593 l 26 681 l 131 681 q 158 777 131 718 q 225 879 185 836 q 317 944 267 922 q 426 965 368 965 l 681 965 m 290 681 l 557 681 l 558 678 l 558 817 q 469 891 517 865 q 372 917 422 917 q 292 888 319 917 q 265 804 265 860 q 272 744 265 776 q 290 681 278 711 z "},"Λ":{"ha":949,"x_min":7,"x_max":942,"o":"m 674 85 l 432 694 l 414 760 l 179 119 l 297 0 l 7 0 l 104 124 l 436 979 l 503 979 l 869 82 l 942 0 l 563 0 l 674 85 z "},"⅛":{"ha":1064,"x_min":86,"x_max":1069,"o":"m 226 -46 l 853 999 l 919 999 l 292 -46 l 226 -46 m 182 471 l 182 788 l 88 756 l 86 757 l 299 954 l 299 471 l 392 413 l 96 413 l 182 471 m 1032 433 q 1011 372 1032 399 q 940 315 990 344 q 1045 232 1021 267 q 1069 153 1069 197 q 1001 32 1069 78 q 846 -14 933 -14 q 710 22 763 -14 q 657 115 657 58 q 678 185 657 154 q 778 260 700 215 q 696 338 711 311 q 681 400 681 365 q 736 501 681 463 q 874 539 792 539 q 984 509 936 539 q 1032 433 1032 479 m 967 422 q 938 490 967 465 q 865 514 910 514 q 795 491 822 514 q 768 431 768 468 q 783 394 768 411 q 829 363 797 378 q 876 342 844 354 q 918 325 908 329 q 955 365 943 342 q 967 422 967 388 m 722 119 q 756 41 722 71 q 847 11 789 11 q 940 38 906 11 q 974 110 974 64 q 960 163 974 140 q 915 203 946 186 q 850 233 893 217 q 806 249 807 249 q 745 192 768 226 q 722 119 722 157 z "},"⅜":{"ha":1094,"x_min":60,"x_max":1061,"o":"m 219 -46 l 846 999 l 913 999 l 285 -46 l 219 -46 m 472 590 q 428 512 472 547 q 299 450 383 476 q 177 422 242 432 q 67 411 113 411 l 60 438 q 242 470 168 438 q 317 560 317 503 q 278 638 317 608 q 153 682 239 667 q 138 680 149 682 q 122 676 128 678 l 119 692 l 153 701 q 294 766 258 736 q 331 832 331 796 q 298 899 331 874 q 211 924 265 924 q 141 899 171 924 q 78 801 111 874 l 72 801 l 72 951 l 225 951 q 402 924 340 951 q 464 844 464 897 q 413 770 464 803 q 244 707 361 738 q 414 669 356 699 q 472 590 472 640 m 1024 433 q 1003 372 1024 399 q 932 315 982 344 q 1037 232 1013 267 q 1061 153 1061 197 q 993 32 1061 78 q 838 -14 925 -14 q 701 22 754 -14 q 649 115 649 58 q 670 185 649 154 q 769 260 692 215 q 688 338 703 311 q 672 400 672 365 q 728 501 672 463 q 865 539 783 539 q 976 509 928 539 q 1024 433 1024 479 m 958 422 q 930 490 958 465 q 857 514 901 514 q 787 491 814 514 q 760 431 760 468 q 774 394 760 411 q 821 363 789 378 q 868 342 836 354 q 910 325 900 329 q 947 365 935 342 q 958 422 958 388 m 714 119 q 747 41 714 71 q 839 11 781 11 q 931 38 897 11 q 965 110 965 64 q 951 163 965 140 q 907 203 938 186 q 842 233 885 217 q 797 249 799 249 q 737 192 760 226 q 714 119 714 157 z "},"⅝":{"ha":1065,"x_min":54,"x_max":1017,"o":"m 203 -46 l 829 999 l 896 999 l 268 -46 l 203 -46 m 404 846 l 132 846 l 111 740 l 150 756 q 199 770 174 765 q 247 775 224 775 q 383 728 326 775 q 440 613 440 682 q 370 475 440 524 q 172 426 300 426 l 54 426 q 56 510 56 472 q 57 578 57 549 l 64 578 q 92 533 75 554 q 129 494 108 513 q 177 464 153 474 q 226 454 201 454 q 301 483 281 454 q 322 578 322 511 q 294 701 322 663 q 211 740 267 740 q 156 730 185 740 q 100 699 128 719 l 97 683 l 64 683 l 103 933 l 106 951 l 383 951 l 440 996 l 431 951 l 404 846 m 821 539 q 931 509 883 539 q 979 433 979 479 q 958 372 979 399 q 888 315 938 344 q 992 232 968 267 q 1017 153 1017 197 q 949 32 1017 78 q 793 -14 881 -14 q 657 22 710 -14 q 604 115 604 58 q 626 185 604 154 q 725 260 647 215 q 643 338 658 311 q 628 400 628 365 q 683 501 628 463 q 821 539 739 539 m 914 422 q 885 490 914 465 q 813 514 857 514 q 742 491 769 514 q 715 431 715 468 q 730 394 715 411 q 776 363 744 378 q 824 342 792 354 q 865 325 856 329 q 902 365 890 342 q 914 422 914 388 m 753 249 q 692 192 715 226 q 669 119 669 157 q 703 41 669 71 q 794 11 736 11 q 887 38 853 11 q 921 110 921 64 q 907 163 921 140 q 863 203 893 186 q 797 233 840 217 q 753 249 754 249 z "},"⅞":{"ha":1069,"x_min":49,"x_max":1007,"o":"m 160 -46 l 786 999 l 853 999 l 225 -46 l 160 -46 m 333 846 l 99 846 l 51 782 l 49 782 l 49 951 l 454 951 l 139 413 l 100 426 l 333 846 m 969 433 q 949 372 969 399 q 878 315 928 344 q 983 232 958 267 q 1007 153 1007 197 q 939 32 1007 78 q 783 -14 871 -14 q 647 22 700 -14 q 594 115 594 58 q 616 185 594 154 q 715 260 638 215 q 633 338 649 311 q 618 400 618 365 q 674 501 618 463 q 811 539 729 539 q 922 509 874 539 q 969 433 969 479 m 904 422 q 876 490 904 465 q 803 514 847 514 q 733 491 760 514 q 706 431 706 468 q 720 394 706 411 q 767 363 735 378 q 814 342 782 354 q 856 325 846 329 q 892 365 881 342 q 904 422 904 388 m 660 119 q 693 41 660 71 q 785 11 726 11 q 877 38 843 11 q 911 110 911 64 q 897 163 911 140 q 853 203 883 186 q 788 233 831 217 q 743 249 744 249 q 683 192 706 226 q 660 119 660 157 z "},"⁰":{"ha":568,"x_min":56,"x_max":513,"o":"m 56 790 q 126 1001 56 913 q 310 1089 197 1089 q 456 1017 400 1089 q 513 838 513 944 q 441 627 513 715 q 257 539 369 539 q 112 611 168 539 q 56 790 56 683 m 310 579 q 372 628 349 579 q 396 740 396 676 q 357 958 396 868 q 261 1049 318 1049 q 197 1008 218 1049 q 175 888 175 967 q 214 669 175 758 q 310 579 253 579 z "},"⁴":{"ha":538,"x_min":28,"x_max":510,"o":"m 265 835 l 383 992 l 383 763 l 510 763 l 510 722 l 383 722 l 383 650 l 476 592 l 181 592 l 267 650 l 267 724 l 28 724 l 264 1118 l 406 1118 l 128 764 l 265 764 l 265 835 z "},"⁵":{"ha":472,"x_min":54,"x_max":440,"o":"m 404 1011 l 132 1011 l 111 906 l 150 921 q 199 935 174 931 q 247 940 224 940 q 383 894 326 940 q 440 778 440 847 q 370 640 440 689 q 172 592 300 592 l 54 592 q 56 676 56 638 q 57 743 57 714 l 64 743 q 92 699 75 719 q 129 660 108 678 q 177 629 153 639 q 226 619 201 619 q 301 648 281 619 q 322 743 322 676 q 294 867 322 828 q 211 906 267 906 q 156 895 185 906 q 100 864 128 885 l 97 849 l 64 849 l 103 1099 l 106 1117 l 383 1117 l 440 1161 l 431 1117 l 404 1011 z "},"⁶":{"ha":454,"x_min":-6,"x_max":407,"o":"m 189 585 q 49 633 103 585 q -6 761 -6 682 q 97 974 -6 875 q 376 1135 199 1072 l 382 1113 q 217 1017 281 1075 q 129 881 153 958 q 187 906 160 897 q 235 914 214 914 q 359 872 311 914 q 407 758 407 829 q 344 637 407 689 q 189 585 282 585 m 292 739 q 260 838 292 799 q 188 878 229 878 q 158 872 172 878 q 121 850 143 867 q 115 813 117 832 q 113 765 113 794 q 139 655 113 696 q 208 614 165 614 q 269 651 246 614 q 292 739 292 689 z "},"⁷":{"ha":503,"x_min":49,"x_max":454,"o":"m 333 1008 l 99 1008 l 51 944 l 49 944 l 49 1114 l 454 1114 l 139 575 l 100 589 l 333 1008 z "},"⁸":{"ha":506,"x_min":46,"x_max":458,"o":"m 167 858 q 85 937 100 910 q 69 999 69 964 q 125 1099 69 1061 q 263 1138 181 1138 q 373 1108 325 1138 q 421 1032 421 1078 q 400 970 421 997 q 329 914 379 943 q 434 831 410 865 q 458 751 458 796 q 390 631 458 676 q 235 585 322 585 q 99 621 151 585 q 46 714 46 657 q 67 783 46 753 q 167 858 89 814 m 157 1029 q 172 993 157 1010 q 218 961 186 976 q 265 940 233 953 q 307 924 297 928 q 344 963 332 940 q 356 1021 356 986 q 327 1088 356 1064 q 254 1113 299 1113 q 184 1090 211 1113 q 157 1029 157 1067 m 363 708 q 349 762 363 739 q 304 801 335 785 q 239 831 282 815 q 194 847 196 847 q 134 790 157 825 q 111 718 111 756 q 144 640 111 669 q 236 610 178 610 q 328 636 294 610 q 363 708 363 663 z "},"⁹":{"ha":493,"x_min":88,"x_max":513,"o":"m 311 1132 q 457 1083 401 1132 q 513 956 513 1035 q 407 743 513 842 q 118 582 301 644 l 113 604 q 283 700 218 642 q 374 836 349 758 q 313 811 340 819 q 264 803 285 803 q 137 845 186 803 q 88 958 88 888 q 151 1080 88 1028 q 311 1132 215 1132 m 206 978 q 238 878 206 918 q 313 839 269 839 q 341 844 326 839 q 382 867 356 849 q 388 903 386 885 q 390 951 390 922 q 363 1062 390 1021 q 292 1103 336 1103 q 229 1065 253 1103 q 206 978 206 1028 z "},"­":{"ha":619,"x_min":8,"x_max":611,"o":"m 8 432 l 611 432 l 611 335 l 8 335 l 8 432 z "}," ":{"ha":299,"x_min":0,"x_max":0,"o":""}," ":{"ha":278,"x_min":0,"x_max":0,"o":""},"€":{"ha":868,"x_min":11,"x_max":826,"o":"m 333 325 q 415 178 358 229 q 553 128 471 128 q 701 163 636 128 q 810 268 765 197 l 826 256 q 683 58 772 129 q 481 -14 593 -14 q 255 74 340 -14 q 154 319 169 161 l 11 315 l 11 382 l 151 382 l 151 383 q 153 431 151 407 q 160 476 156 454 l 31 472 l 31 540 l 176 540 q 326 750 221 674 q 578 826 432 826 l 751 826 l 751 581 l 743 581 q 637 730 694 683 q 504 776 579 776 q 373 717 421 776 q 315 542 325 657 l 538 542 l 538 488 l 314 481 q 316 433 314 457 q 321 385 318 408 l 518 385 l 518 331 l 333 325 z "},"∅":{"ha":847,"x_min":56,"x_max":792,"o":"m 664 600 l 764 696 l 792 665 l 693 571 q 756 463 735 522 q 778 340 778 404 q 674 90 778 193 q 424 -14 571 -14 q 294 10 357 -14 q 183 81 232 35 l 83 -15 l 56 15 l 154 110 q 91 217 113 158 q 69 340 69 276 q 173 591 69 488 q 424 694 276 694 q 553 670 490 694 q 664 600 615 646 m 424 643 q 209 555 297 643 q 121 340 121 467 q 139 236 121 286 q 192 146 157 186 l 628 565 q 533 623 586 603 q 424 643 481 643 m 424 38 q 638 126 550 38 q 726 340 726 214 q 708 444 726 394 q 656 535 690 494 l 219 115 q 314 58 261 78 q 424 38 367 38 z "},"♥":{"ha":1161,"x_min":69,"x_max":1092,"o":"m 325 743 q 458 699 393 743 q 581 569 522 654 q 703 699 639 654 q 836 743 768 743 q 1018 674 944 743 q 1092 482 1092 604 q 1071 385 1092 432 q 1004 288 1050 338 q 947 232 981 261 q 839 143 914 203 q 668 -3 721 50 q 581 -110 615 -57 q 493 -3 546 -57 q 322 143 440 50 q 214 232 247 203 q 157 288 181 261 q 90 385 111 338 q 69 482 69 432 q 143 674 69 604 q 325 743 217 743 m 569 499 q 540 427 549 451 q 532 389 532 403 q 546 337 532 357 q 581 317 560 317 q 616 337 601 317 q 631 389 631 357 q 623 424 631 401 q 594 492 615 447 q 584 514 586 508 q 581 522 582 519 q 578 515 579 519 q 569 499 576 511 z "},"♡":{"ha":1163,"x_min":69,"x_max":1092,"o":"m 839 143 q 683 11 732 58 q 600 -82 635 -36 l 581 -106 l 561 -82 q 478 11 526 -36 q 322 143 429 58 q 214 232 247 203 q 157 288 181 261 q 91 385 113 338 q 69 482 69 432 q 140 675 69 607 q 325 743 210 743 q 444 708 385 743 q 564 604 504 674 q 581 596 571 596 q 597 604 590 596 q 717 708 657 674 q 836 743 776 743 q 1022 675 951 743 q 1092 482 1092 607 q 1070 385 1092 432 q 1004 288 1049 338 q 947 232 981 261 q 839 143 914 203 m 842 706 q 720 667 779 706 q 597 546 661 629 l 581 524 l 564 546 q 441 667 500 629 q 321 706 382 706 q 170 649 229 706 q 111 489 111 592 q 156 350 111 417 q 351 165 200 283 q 492 48 446 90 q 571 -35 538 6 q 581 -40 576 -40 q 590 -35 585 -40 q 669 48 624 6 q 810 165 715 90 q 1006 350 961 283 q 1050 489 1050 417 q 991 649 1050 592 q 842 706 932 706 m 589 456 q 612 403 606 422 q 618 371 618 385 q 608 331 618 347 q 581 315 597 315 q 555 331 565 315 q 544 371 544 346 q 551 403 544 385 q 572 456 557 422 q 578 469 576 465 q 581 475 581 474 q 583 469 581 472 q 589 456 585 465 z "},"☇":{"ha":589,"x_min":56,"x_max":540,"o":"m 331 421 l 540 421 l 128 -50 l 122 -50 l 265 299 l 56 299 l 468 769 l 474 769 l 331 421 z "},"☝":{"ha":833,"x_min":153,"x_max":658,"o":"m 231 114 q 181 119 199 111 q 163 146 164 126 q 165 193 160 172 q 179 214 169 214 l 217 214 q 218 229 217 217 q 221 251 219 242 q 233 303 229 294 q 239 310 236 313 l 275 306 q 266 338 272 314 q 254 378 260 363 q 242 414 249 397 q 226 447 235 431 q 197 528 211 476 q 176 618 182 581 q 160 742 167 689 q 153 811 153 794 q 169 897 153 857 q 210 936 185 936 q 249 905 238 936 q 253 825 260 874 q 273 842 258 835 q 299 849 288 849 q 341 832 322 849 q 365 788 360 815 q 378 799 369 794 q 393 803 386 803 q 410 799 401 803 q 426 789 418 796 q 429 797 428 790 q 431 817 431 804 q 431 831 431 822 q 432 858 432 840 q 433 884 432 875 q 433 899 433 893 q 451 967 436 936 q 483 999 465 999 q 544 945 518 999 q 574 815 569 892 q 578 725 578 754 q 572 657 578 696 l 561 571 q 608 517 582 554 q 633 456 633 479 q 624 393 633 428 q 601 339 614 358 q 588 317 590 324 q 588 294 586 311 l 588 253 q 593 251 588 253 q 603 246 599 249 q 610 235 608 242 q 611 221 613 228 q 610 213 611 217 q 610 204 610 208 l 633 200 q 651 197 644 199 q 657 193 657 194 q 659 167 660 185 q 658 149 658 150 q 652 108 658 119 q 635 100 646 97 q 433 110 617 104 q 231 114 250 117 m 547 757 q 542 840 549 813 q 536 868 536 867 q 515 935 528 907 q 489 964 501 964 q 474 949 481 964 q 461 878 468 933 q 457 833 458 849 q 456 804 456 818 q 456 788 456 796 q 454 763 456 779 l 454 736 q 455 710 454 733 q 454 674 456 686 q 451 650 453 664 q 449 618 450 636 q 469 619 454 618 q 493 619 485 619 q 518 615 508 619 q 533 600 528 610 q 547 703 547 657 q 547 757 547 750 m 517 572 q 510 581 517 572 q 497 589 504 590 l 453 583 q 455 542 458 571 q 443 496 451 513 q 454 489 447 493 q 478 476 461 485 q 494 469 490 471 q 499 465 497 467 q 497 453 501 463 q 488 442 492 443 q 458 451 483 440 q 431 465 433 461 q 421 455 425 458 q 414 450 417 451 q 422 381 414 399 q 444 357 429 364 q 438 346 442 351 q 428 333 433 340 q 390 379 406 342 q 381 446 374 417 q 358 470 369 451 q 346 503 346 489 q 331 492 338 490 q 324 493 325 493 q 299 502 314 494 q 278 517 283 510 q 265 545 272 522 q 257 579 258 568 q 256 596 257 585 q 254 625 256 607 q 235 647 246 628 q 221 685 224 665 q 220 711 221 689 q 219 774 219 733 q 217 891 219 878 q 210 904 214 904 q 190 879 200 904 q 181 833 179 854 q 185 781 182 814 q 190 735 188 747 q 212 610 210 622 q 215 592 214 597 q 217 584 217 589 q 219 567 218 579 q 231 510 225 529 q 244 478 236 490 q 288 385 264 446 q 311 300 311 324 q 390 285 329 296 q 553 257 450 275 q 556 300 551 276 q 567 342 560 324 q 569 348 568 344 q 575 360 571 351 q 599 413 593 394 q 606 446 606 432 q 603 471 606 461 q 588 496 601 481 l 517 572 m 340 682 q 342 710 342 701 q 343 726 343 718 q 333 797 343 775 q 300 817 322 818 q 263 803 278 817 q 247 772 247 790 q 248 728 247 754 q 250 697 249 703 q 253 686 251 693 q 258 669 256 679 q 274 674 263 678 q 286 656 285 671 q 289 617 286 654 q 290 571 292 579 q 297 543 288 561 q 315 525 307 525 q 333 547 326 525 q 338 603 340 569 q 337 636 336 619 q 340 682 338 653 m 424 736 q 411 767 417 761 q 396 774 406 774 q 383 765 388 774 q 375 753 378 757 l 371 742 q 369 703 369 733 q 368 628 368 672 l 368 579 q 369 574 368 578 q 371 558 369 571 q 380 495 374 513 q 397 478 386 478 q 413 488 407 478 q 421 519 419 499 q 423 549 422 531 q 424 572 424 567 q 427 625 425 592 q 429 672 429 658 l 429 707 q 428 719 429 714 q 424 736 428 724 m 579 222 q 549 226 578 222 q 432 246 521 231 q 297 267 331 261 q 257 272 263 272 q 254 247 257 268 q 253 214 251 225 q 408 202 281 211 q 546 193 536 193 q 555 196 549 193 q 571 203 561 199 q 580 215 575 206 q 579 222 585 224 z "},"☠":{"ha":840,"x_min":68,"x_max":771,"o":"m 260 -31 l 265 22 l 226 14 l 226 158 q 221 175 226 169 q 193 183 215 181 q 150 197 164 186 q 126 225 136 207 q 97 281 108 249 q 71 381 85 313 q 149 699 56 574 q 404 825 242 825 q 679 714 588 825 q 771 381 771 603 q 753 285 771 322 q 679 217 735 249 q 627 174 639 194 q 615 125 615 154 l 615 36 l 560 25 l 560 136 q 566 194 560 181 q 604 228 572 208 q 653 265 633 246 q 693 314 674 285 l 682 325 q 650 349 665 336 q 619 375 635 361 q 590 363 606 367 q 560 358 575 358 q 501 387 522 358 q 471 481 479 415 q 478 494 471 488 q 496 501 485 500 q 413 610 456 550 q 315 758 371 669 l 308 769 q 297 765 304 769 q 271 747 289 761 q 183 640 221 711 q 133 488 144 568 q 147 327 121 396 q 238 225 174 258 q 272 205 265 210 q 281 193 278 200 q 283 164 283 185 q 282 136 282 143 l 282 69 l 315 69 l 315 -31 l 282 -64 l 260 -31 m 704 381 q 706 514 719 443 q 654 646 693 585 q 554 745 614 710 q 426 781 494 781 l 382 781 q 486 619 442 683 q 574 506 531 556 q 606 508 592 507 q 635 508 621 508 q 662 499 653 508 q 671 469 671 490 q 667 444 671 458 q 658 418 664 431 q 683 397 667 410 q 704 381 700 383 m 276 497 q 328 493 311 494 q 360 492 344 492 q 376 488 371 492 q 382 469 382 483 q 331 393 363 417 q 249 369 299 369 q 191 399 211 369 q 171 481 171 429 q 177 497 171 492 q 193 503 183 503 q 225 501 208 503 q 276 497 242 500 m 375 283 q 390 334 385 313 q 400 381 396 356 q 409 394 404 388 q 424 410 414 400 q 442 394 438 400 q 449 381 447 388 q 451 338 449 360 q 463 282 454 317 q 469 252 468 261 q 471 236 471 243 q 440 215 454 221 q 408 210 425 210 q 378 219 390 210 q 367 243 367 229 q 368 258 367 250 q 375 283 369 265 m 482 -31 l 482 58 l 538 58 l 538 -31 l 515 -53 l 482 -31 m 415 -42 l 415 47 l 460 47 l 460 -42 l 438 -64 l 415 -42 m 338 -75 l 338 36 l 393 36 l 382 -75 l 360 -108 l 338 -75 z "}}}
